<svg width="94" height="31" viewBox="0 0 94 31" fill="none" xmlns="http://www.w3.org/2000/svg">
<path d="M9.96 30.4C8.30667 30.4 6.77333 30.0133 5.36 29.24C3.97333 28.44 2.85333 27.32 2 25.88C1.17333 24.4133 0.76 22.7067 0.76 20.76C0.76 18.84 1.12 17.16 1.84 15.72C2.58667 14.28 3.64 13.16 5 12.36C6.36 11.56 7.96 11.16 9.8 11.16C10.8667 11.16 11.8667 11.3467 12.8 11.72C13.7333 12.0933 14.52 12.56 15.16 13.12C15.8 13.6533 16.2267 14.1867 16.44 14.72L16.52 11.64H20.64V30H16.56L16.48 26.76C16.0267 27.72 15.2 28.5733 14 29.32C12.8 30.04 11.4533 30.4 9.96 30.4ZM10.68 26.8C12.2 26.8 13.48 26.28 14.52 25.24C15.56 24.1733 16.08 22.7867 16.08 21.08V20.8C16.08 19.6533 15.84 18.6267 15.36 17.72C14.88 16.8133 14.2267 16.1067 13.4 15.6C12.5733 15.0933 11.6667 14.84 10.68 14.84C8.97333 14.84 7.65333 15.4 6.72 16.52C5.78667 17.6133 5.32 19.04 5.32 20.8C5.32 22.5867 5.77333 24.04 6.68 25.16C7.61333 26.2533 8.94667 26.8 10.68 26.8ZM26.8494 15.16H23.6094V11.64H26.8494V4.16L31.2094 3.2V11.64H35.4494V15.16H31.2094V30H26.8494V15.16ZM38.1203 0.599999H42.4003V30H38.1203V0.599999ZM55.3834 30.4C53.7301 30.4 52.1968 30.0133 50.7834 29.24C49.3968 28.44 48.2768 27.32 47.4234 25.88C46.5968 24.4133 46.1834 22.7067 46.1834 20.76C46.1834 18.84 46.5434 17.16 47.2634 15.72C48.0101 14.28 49.0634 13.16 50.4234 12.36C51.7834 11.56 53.3834 11.16 55.2234 11.16C56.2901 11.16 57.2901 11.3467 58.2234 11.72C59.1568 12.0933 59.9434 12.56 60.5834 13.12C61.2234 13.6533 61.6501 14.1867 61.8634 14.72L61.9434 11.64H66.0634V30H61.9834L61.9034 26.76C61.4501 27.72 60.6234 28.5733 59.4234 29.32C58.2234 30.04 56.8768 30.4 55.3834 30.4ZM56.1034 26.8C57.6234 26.8 58.9034 26.28 59.9434 25.24C60.9834 24.1733 61.5034 22.7867 61.5034 21.08V20.8C61.5034 19.6533 61.2634 18.6267 60.7834 17.72C60.3034 16.8133 59.6501 16.1067 58.8234 15.6C57.9968 15.0933 57.0901 14.84 56.1034 14.84C54.3968 14.84 53.0768 15.4 52.1434 16.52C51.2101 17.6133 50.7434 19.04 50.7434 20.8C50.7434 22.5867 51.1968 24.04 52.1034 25.16C53.0368 26.2533 54.3701 26.8 56.1034 26.8ZM76.9928 30.4C75.7128 30.4 74.3795 30.24 72.9928 29.92C71.6328 29.5733 70.6595 29.1733 70.0728 28.72L71.5128 25.32C73.1128 26.44 74.9395 27 76.9928 27C79.0461 27 80.0728 26.4 80.0728 25.2C80.0728 24.6667 79.8595 24.2533 79.4328 23.96C79.0061 23.6667 78.2461 23.32 77.1528 22.92L75.6328 22.36C74.0328 21.72 72.7661 20.96 71.8328 20.08C70.8995 19.1733 70.4328 17.9867 70.4328 16.52C70.4328 14.84 71.0861 13.5333 72.3928 12.6C73.7261 11.64 75.4995 11.16 77.7128 11.16C78.8061 11.16 79.8728 11.28 80.9128 11.52C81.9795 11.76 82.7928 12.0667 83.3528 12.44L81.7928 15.88C81.4461 15.5333 80.8861 15.24 80.1128 15C79.3661 14.7333 78.5261 14.6 77.5928 14.6C75.6995 14.6 74.7528 15.1733 74.7528 16.32C74.7528 16.96 75.0061 17.4533 75.5128 17.8C76.0195 18.12 76.8461 18.48 77.9928 18.88C78.0995 18.9067 78.5128 19.0533 79.2328 19.32C80.9395 19.9867 82.2061 20.7467 83.0328 21.6C83.8595 22.4533 84.2728 23.5467 84.2728 24.88C84.2728 26.6933 83.5795 28.0667 82.1928 29C80.8328 29.9333 79.0995 30.4 76.9928 30.4ZM90.5188 30.4C89.7188 30.4 89.0388 30.1333 88.4788 29.6C87.9188 29.04 87.6388 28.36 87.6388 27.56C87.6388 26.7333 87.9054 26.0533 88.4388 25.52C88.9988 24.96 89.6921 24.68 90.5188 24.68C91.3454 24.68 92.0254 24.96 92.5588 25.52C93.1188 26.0533 93.3988 26.7333 93.3988 27.56C93.3988 28.36 93.1188 29.04 92.5588 29.6C92.0254 30.1333 91.3454 30.4 90.5188 30.4Z" fill="url(#paint0_linear)"/>
<defs>
<linearGradient id="paint0_linear" x1="2.20352" y1="23.8" x2="106.719" y2="31.1729" gradientUnits="userSpaceOnUse">
<stop stop-color="white"/>
<stop offset="1" stop-color="white"/>
</linearGradient>
</defs>
</svg>
