<svg width="302" height="98" viewBox="0 0 302 98" fill="none" xmlns="http://www.w3.org/2000/svg">
<path d="M30.62 97.3C25.2467 97.3 20.2633 96.0433 15.67 93.53C11.1633 90.93 7.52333 87.29 4.75 82.61C2.06333 77.8433 0.72 72.2967 0.72 65.97C0.72 59.73 1.89 54.27 4.23 49.59C6.65667 44.91 10.08 41.27 14.5 38.67C18.92 36.07 24.12 34.77 30.1 34.77C33.5667 34.77 36.8167 35.3767 39.85 36.59C42.8833 37.8033 45.44 39.32 47.52 41.14C49.6 42.8733 50.9867 44.6067 51.68 46.34L51.94 36.33H65.33V96H52.07L51.81 85.47C50.3367 88.59 47.65 91.3633 43.75 93.79C39.85 96.13 35.4733 97.3 30.62 97.3ZM32.96 85.6C37.9 85.6 42.06 83.91 45.44 80.53C48.82 77.0633 50.51 72.5567 50.51 67.01V66.1C50.51 62.3733 49.73 59.0367 48.17 56.09C46.61 53.1433 44.4867 50.8467 41.8 49.2C39.1133 47.5533 36.1667 46.73 32.96 46.73C27.4133 46.73 23.1233 48.55 20.09 52.19C17.0567 55.7433 15.54 60.38 15.54 66.1C15.54 71.9067 17.0133 76.63 19.96 80.27C22.9933 83.8233 27.3267 85.6 32.96 85.6ZM85.5105 47.77H74.9805V36.33H85.5105V12.02L99.6805 8.9V36.33H113.46V47.77H99.6805V96H85.5105V47.77ZM122.141 0.449998H136.051V96H122.141V0.449998ZM178.246 97.3C172.873 97.3 167.89 96.0433 163.296 93.53C158.79 90.93 155.15 87.29 152.376 82.61C149.69 77.8433 148.346 72.2967 148.346 65.97C148.346 59.73 149.516 54.27 151.856 49.59C154.283 44.91 157.706 41.27 162.126 38.67C166.546 36.07 171.746 34.77 177.726 34.77C181.193 34.77 184.443 35.3767 187.476 36.59C190.51 37.8033 193.066 39.32 195.146 41.14C197.226 42.8733 198.613 44.6067 199.306 46.34L199.566 36.33H212.956V96H199.696L199.436 85.47C197.963 88.59 195.276 91.3633 191.376 93.79C187.476 96.13 183.1 97.3 178.246 97.3ZM180.586 85.6C185.526 85.6 189.686 83.91 193.066 80.53C196.446 77.0633 198.136 72.5567 198.136 67.01V66.1C198.136 62.3733 197.356 59.0367 195.796 56.09C194.236 53.1433 192.113 50.8467 189.426 49.2C186.74 47.5533 183.793 46.73 180.586 46.73C175.04 46.73 170.75 48.55 167.716 52.19C164.683 55.7433 163.166 60.38 163.166 66.1C163.166 71.9067 164.64 76.63 167.586 80.27C170.62 83.8233 174.953 85.6 180.586 85.6ZM248.477 97.3C244.317 97.3 239.983 96.78 235.477 95.74C231.057 94.6133 227.893 93.3133 225.987 91.84L230.667 80.79C235.867 84.43 241.803 86.25 248.477 86.25C255.15 86.25 258.487 84.3 258.487 80.4C258.487 78.6667 257.793 77.3233 256.407 76.37C255.02 75.4167 252.55 74.29 248.997 72.99L244.057 71.17C238.857 69.09 234.74 66.62 231.707 63.76C228.673 60.8133 227.157 56.9567 227.157 52.19C227.157 46.73 229.28 42.4833 233.527 39.45C237.86 36.33 243.623 34.77 250.817 34.77C254.37 34.77 257.837 35.16 261.217 35.94C264.683 36.72 267.327 37.7167 269.147 38.93L264.077 50.11C262.95 48.9833 261.13 48.03 258.617 47.25C256.19 46.3833 253.46 45.95 250.427 45.95C244.273 45.95 241.197 47.8133 241.197 51.54C241.197 53.62 242.02 55.2233 243.667 56.35C245.313 57.39 248 58.56 251.727 59.86C252.073 59.9467 253.417 60.4233 255.757 61.29C261.303 63.4567 265.42 65.9267 268.107 68.7C270.793 71.4733 272.137 75.0267 272.137 79.36C272.137 85.2533 269.883 89.7167 265.377 92.75C260.957 95.7833 255.323 97.3 248.477 97.3ZM292.436 97.3C289.836 97.3 287.626 96.4333 285.806 94.7C283.986 92.88 283.076 90.67 283.076 88.07C283.076 85.3833 283.943 83.1733 285.676 81.44C287.496 79.62 289.749 78.71 292.436 78.71C295.123 78.71 297.333 79.62 299.066 81.44C300.886 83.1733 301.796 85.3833 301.796 88.07C301.796 90.67 300.886 92.88 299.066 94.7C297.333 96.4333 295.123 97.3 292.436 97.3Z" fill="url(#paint0_linear)"/>
<defs>
<linearGradient id="paint0_linear" x1="-5" y1="12.416" x2="343.089" y2="90.0638" gradientUnits="userSpaceOnUse">
<stop stop-color="#7A21F9"/>
<stop offset="1" stop-color="#1CD0F7"/>
</linearGradient>
</defs>
</svg>
