<?xml version="1.0" encoding="UTF-8"?>
<svg width="111px" height="26px" viewBox="0 0 111 26" version="1.1" xmlns="http://www.w3.org/2000/svg" xmlns:xlink="http://www.w3.org/1999/xlink">
    <!-- Generator: Sketch 50 (54983) - http://www.bohemiancoding.com/sketch -->
    <title>playstore</title>
    <desc>Created with Sketch.</desc>
    <defs>
        <linearGradient x1="91.4895098%" y1="4.9604069%" x2="-38.3173161%" y2="71.909245%" id="linearGradient-1">
            <stop stop-color="#00A0FF" offset="0%"></stop>
            <stop stop-color="#00A1FF" offset="0.66%"></stop>
            <stop stop-color="#00BEFF" offset="26.01%"></stop>
            <stop stop-color="#00D2FF" offset="51.22%"></stop>
            <stop stop-color="#00DFFF" offset="76.04%"></stop>
            <stop stop-color="#00E3FF" offset="100%"></stop>
        </linearGradient>
        <linearGradient x1="107.585647%" y1="50.0163647%" x2="-130.492257%" y2="50.0163647%" id="linearGradient-2">
            <stop stop-color="#FFE000" offset="0%"></stop>
            <stop stop-color="#FFBD00" offset="40.87%"></stop>
            <stop stop-color="#FFA500" offset="77.54%"></stop>
            <stop stop-color="#FF9C00" offset="100%"></stop>
        </linearGradient>
        <linearGradient x1="86.237735%" y1="117.851014%" x2="-50.1313759%" y2="294.785269%" id="linearGradient-3">
            <stop stop-color="#FF3A44" offset="0%"></stop>
            <stop stop-color="#C31162" offset="100%"></stop>
        </linearGradient>
        <linearGradient x1="-18.8012883%" y1="-154.171052%" x2="42.0936259%" y2="-75.1365546%" id="linearGradient-4">
            <stop stop-color="#32A071" offset="0%"></stop>
            <stop stop-color="#2DA771" offset="6.85%"></stop>
            <stop stop-color="#15CF74" offset="47.62%"></stop>
            <stop stop-color="#06E775" offset="80.09%"></stop>
            <stop stop-color="#00F076" offset="100%"></stop>
        </linearGradient>
    </defs>
    <g id="Symbols" stroke="none" stroke-width="1" fill="none" fill-rule="evenodd">
        <g id="Google_play" transform="translate(-13.000000, -7.000000)" fill-rule="nonzero">
            <g id="playstore" transform="translate(1.000000, 1.000000)">
                <g id="Group" transform="translate(41.000000, 6.000000)" fill="#FFFFFF">
                    <path d="M5.91346084,3.67410359 C5.91346084,4.44227297 5.67375833,5.05749846 5.20154439,5.51633017 C4.65861821,6.0602585 3.95149582,6.33394759 3.08497126,6.33394759 C2.2567991,6.33394759 1.5496767,6.05565868 0.969596639,5.50713054 C0.388318061,4.95055272 0.0982780277,4.26747994 0.0982780277,3.44986252 C0.0982780277,2.6322451 0.388318061,1.94917233 0.969596639,1.39719432 C1.5496767,0.844066364 2.2567991,0.565777454 3.08497126,0.565777454 C3.49725957,0.565777454 3.89037168,0.6474242 4.2655061,0.799218151 C4.63944201,0.952162056 4.9438642,1.15915381 5.1643905,1.41444363 L4.66341226,1.8997243 C4.27868974,1.46389166 3.75493976,1.24885023 3.08497126,1.24885023 C2.48092094,1.24885023 1.95717097,1.45124217 1.51252282,1.8594759 C1.07266872,2.26885959 0.852142411,2.79898846 0.852142411,3.44986252 C0.852142411,4.10073658 1.07266872,4.63546528 1.51252282,5.04484896 C1.95717097,5.44848288 2.48092094,5.65547463 3.08497126,5.65547463 C3.72617546,5.65547463 4.2655061,5.44848288 4.69097805,5.04024915 C4.97142999,4.77000991 5.13083215,4.39742476 5.17278009,3.92134373 L3.08497126,3.92134373 L3.08497126,3.25667022 L5.87031438,3.25667022 C5.90387274,3.40041449 5.91346084,3.53955895 5.91346084,3.67410359 Z" id="path20"></path>
                    <polygon id="path24" points="10.3323765 1.36959542 7.71602368 1.36959542 7.71602368 3.11752577 10.0746963 3.11752577 10.0746963 3.78219928 7.71602368 3.78219928 7.71602368 5.53012962 10.3323765 5.53012962 10.3323765 6.20745263 6.97534294 6.20745263 6.97534294 0.692272413 10.3323765 0.692272413"></polygon>
                    <polygon id="path28" points="13.4509062 6.20745263 12.7102254 6.20745263 12.7102254 1.36959542 11.1054171 1.36959542 11.1054171 0.692272413 15.0569129 0.692272413 15.0569129 1.36959542 13.4509062 1.36959542 13.4509062 6.20745263"></polygon>
                    <polygon id="path32" points="17.9165638 6.20745263 17.9165638 0.692272413 18.6560461 0.692272413 18.6560461 6.20745263"></polygon>
                    <polygon id="path36" points="21.9339779 6.20745263 21.1992897 6.20745263 21.1992897 1.36959542 19.5884888 1.36959542 19.5884888 0.692272413 23.5447787 0.692272413 23.5447787 1.36959542 21.9339779 1.36959542"></polygon>
                    <path d="M31.0258939,5.49793091 C30.4589975,6.05565868 29.7566692,6.33394759 28.9189089,6.33394759 C28.0763546,6.33394759 27.3740262,6.05565868 26.8071298,5.49793091 C26.2414319,4.94135309 25.9597815,4.25828031 25.9597815,3.44986252 C25.9597815,2.64144474 26.2414319,1.95837196 26.8071298,1.40179414 C27.3740262,0.844066364 28.0763546,0.565777454 28.9189089,0.565777454 C29.7518751,0.565777454 30.4542035,0.844066364 31.0210999,1.40639395 C31.5915918,1.96757159 31.8732423,2.64604455 31.8732423,3.44986252 C31.8732423,4.25828031 31.5915918,4.94135309 31.0258939,5.49793091 Z M27.35485,5.03564933 C27.7815205,5.44848288 28.3004764,5.65547463 28.9189089,5.65547463 C29.5325473,5.65547463 30.0562973,5.44848288 30.4781737,5.03564933 C30.9036457,4.62281578 31.1193779,4.09268691 31.1193779,3.44986252 C31.1193779,2.80703814 30.9036457,2.27690926 30.4781737,1.86407572 C30.0562973,1.45124217 29.5325473,1.24425042 28.9189089,1.24425042 C28.3004764,1.24425042 27.7815205,1.45124217 27.35485,1.86407572 C26.9293781,2.27690926 26.7136458,2.80703814 26.7136458,3.44986252 C26.7136458,4.09268691 26.9293781,4.62281578 27.35485,5.03564933 Z" id="path40"></path>
                    <polygon id="path44" points="32.9123527 6.20745263 32.9123527 0.692272413 33.8112371 0.692272413 36.6061683 4.98160148 36.6385281 4.98160148 36.6061683 3.92134373 36.6061683 0.692272413 37.3456505 0.692272413 37.3456505 6.20745263 36.5738084 6.20745263 33.6470408 1.70653199 33.614681 1.70653199 33.6470408 2.77138956 33.6470408 6.20745263 32.9123527 6.20745263"></polygon>
                </g>
                <path d="M66.9789577,27.3399046 C64.7269526,27.3399046 62.8872359,25.6952734 62.8872359,23.4261424 C62.8872359,21.1754129 64.7269526,19.5135303 66.9789577,19.5135303 C69.2357568,19.5135303 71.0754735,21.1754129 71.0754735,23.4261424 C71.0754735,25.6952734 69.2357568,27.3399046 66.9789577,27.3399046 Z M66.9789577,21.0546532 C65.7432912,21.0546532 64.6802106,22.0333813 64.6802106,23.4261424 C64.6802106,24.837305 65.7432912,25.7987817 66.9789577,25.7987817 C68.2146241,25.7987817 69.2824987,24.837305 69.2824987,23.4261424 C69.2824987,22.0333813 68.2146241,21.0546532 66.9789577,21.0546532 Z M58.0512378,27.3399046 C55.7944387,27.3399046 53.959516,25.6952734 53.959516,23.4261424 C53.959516,21.1754129 55.7944387,19.5135303 58.0512378,19.5135303 C60.3068384,19.5135303 62.1429596,21.1754129 62.1429596,23.4261424 C62.1429596,25.6952734 60.3068384,27.3399046 58.0512378,27.3399046 Z M58.0512378,21.0546532 C56.8143729,21.0546532 55.7476967,22.0333813 55.7476967,23.4261424 C55.7476967,24.837305 56.8143729,25.7987817 58.0512378,25.7987817 C59.2869042,25.7987817 60.3499848,24.837305 60.3499848,23.4261424 C60.3499848,22.0333813 59.2869042,21.0546532 58.0512378,21.0546532 Z M47.4276227,26.1403589 L47.4276227,24.4773263 L51.5660865,24.4773263 C51.4450367,23.5480521 51.1214383,22.8648976 50.6252541,22.3887597 C50.0212038,21.8137138 49.0803715,21.1754129 47.4276227,21.1754129 C44.8807836,21.1754129 42.8864587,23.1478202 42.8864587,25.5917652 C42.8864587,28.0357102 44.8807836,30.0081175 47.4276227,30.0081175 C48.8047136,30.0081175 49.8066701,29.4917263 50.5461523,28.8223729 L51.7674366,29.9943164 C50.7331203,30.941992 49.3572279,31.6700001 47.4276227,31.6700001 C43.9351572,31.6700001 41,28.9431325 41,25.5917652 C41,22.2403978 43.9351572,19.5135303 47.4276227,19.5135303 C49.31528,19.5135303 50.7331203,20.1069776 51.8477369,21.2202664 C52.9899194,22.3163039 53.3458776,23.8574268 53.3458776,25.1018261 C53.3458776,25.4882569 53.3123192,25.8436353 53.2523936,26.1403589 L47.4276227,26.1403589 Z M90.868908,24.8511061 C90.5321259,25.7263259 89.4930156,27.3399046 87.3764424,27.3399046 C85.2790455,27.3399046 83.5328128,25.7539281 83.5328128,23.4261424 C83.5328128,21.2340675 85.2610678,19.5135303 87.5777926,19.5135303 C89.4510676,19.5135303 90.5321259,20.6095677 90.9767741,21.2478686 L89.5864996,22.1368896 C89.1226752,21.4859376 88.4910591,21.0546532 87.5777926,21.0546532 C86.6705186,21.0546532 86.0197263,21.4537351 85.6026439,22.2403978 L91.0570744,24.4060206 L90.868908,24.8511061 Z M85.3078098,23.5480521 C85.2610678,25.0569725 86.5290941,25.8298342 87.4375666,25.8298342 C88.149483,25.8298342 88.7535333,25.4882569 88.9548835,24.9994679 L85.3078098,23.5480521 Z M80.874512,19.7515993 L82.6674867,19.7515993 L82.6674867,31.2525168 L80.874512,31.2525168 L80.874512,19.7515993 Z M77.9381563,26.4681351 L77.8782306,26.4681351 C77.4755304,26.9258716 76.7072839,27.3399046 75.7340917,27.3399046 C73.6918264,27.3399046 71.8245438,25.6193674 71.8245438,23.4134914 C71.8245438,21.2202664 73.6918264,19.5135303 75.7340917,19.5135303 C76.7072839,19.5135303 77.4755304,19.9310136 77.8782306,20.4025512 L77.9381563,20.4025512 L77.9381563,19.8413064 C77.9381563,18.3450371 77.10519,17.5411229 75.7616575,17.5411229 C74.666217,17.5411229 73.9866604,18.3001835 73.7062085,18.9384844 L72.1469437,18.3139846 C72.5963859,17.2766018 73.7865088,16 75.7616575,16 C77.8638485,16 79.637647,17.1868947 79.637647,20.0747751 L79.637647,27.1018357 L77.9381563,27.1018357 L77.9381563,26.4681351 Z M75.8875013,21.0546532 C74.6518349,21.0546532 73.6175186,22.0471824 73.6175186,23.4134914 C73.6175186,24.7924514 74.6518349,25.7987817 75.8875013,25.7987817 C77.10519,25.7987817 78.0651986,24.7924514 78.0651986,23.4134914 C78.0651986,22.0471824 77.10519,21.0546532 75.8875013,21.0546532 Z M99.2632897,31.2525168 L94.9750119,31.2525168 L94.9750119,19.7515993 L96.7631926,19.7515993 L96.7631926,24.1092969 L99.2632897,24.1092969 C101.249225,24.1092969 103.196808,25.4882569 103.196808,27.6814819 C103.196808,29.8735568 101.244431,31.2525168 99.2632897,31.2525168 Z M99.3100317,25.7090745 L96.7631926,25.7090745 L96.7631926,29.6527391 L99.3100317,29.6527391 C100.645175,29.6527391 101.407429,28.5889043 101.407429,27.6814819 C101.407429,26.7913109 100.645175,25.7090745 99.3100317,25.7090745 Z M110.363913,27.3617564 C109.071916,27.3617564 107.728384,26.8143127 107.175869,25.6009659 L108.7627,24.962665 C109.104276,25.6009659 109.732297,25.8079824 110.396273,25.8079824 C111.323921,25.8079824 112.264754,25.2731898 112.279136,24.3289644 L112.279136,24.2082048 C111.955537,24.3876191 111.262797,24.6532903 110.410655,24.6532903 C108.701576,24.6532903 106.960137,23.7504683 106.960137,22.0655839 C106.960137,20.5244609 108.36,19.5319318 109.933647,19.5319318 C111.136953,19.5319318 111.800929,20.0529233 112.218012,20.6590217 L112.279136,20.6590217 L112.279136,19.7700008 L114.006192,19.7700008 L114.006192,24.1817527 C114.006192,26.2208654 112.419362,27.3617564 110.363913,27.3617564 Z M110.148181,21.0592536 C109.563306,21.0592536 108.748318,21.3375758 108.748318,22.0333813 C108.748318,22.9235523 109.764657,23.2651296 110.644365,23.2651296 C111.431787,23.2651296 111.800929,23.0983663 112.279136,22.8786987 C112.13891,21.8137138 111.183695,21.0592536 110.148181,21.0592536 Z M120.298383,27.1098863 L118.242934,22.1242386 L118.18181,22.1242386 L116.056847,27.1098863 L114.128441,27.1098863 L117.321278,20.1426305 L115.499539,16.2656712 L117.36802,16.2656712 L122.287914,27.1098863 L120.298383,27.1098863 Z M104.179588,19.7515993 L105.972563,19.7515993 L105.972563,31.2515993 L104.179588,31.2515993 L104.179588,19.7515993 Z" id="Group" fill="#FFFFFF" transform="translate(81.643957, 23.835000) scale(1, -1) translate(-81.643957, -23.835000) "></path>
                <g id="Group-2" transform="translate(11.000000, 6.000000)">
                    <g id="Group" transform="translate(12.500000, 13.500000) scale(-1, 1) rotate(180.000000) translate(-12.500000, -13.500000) translate(1.000000, 1.000000)">
                        <path d="M0.615594894,24.1133891 C0.333944449,23.8305004 0.170946744,23.3900679 0.170946744,22.8196906 L0.170946744,2.47470138 C0.170946744,1.90432411 0.333944449,1.46389166 0.615594894,1.18100294 L0.685108621,1.11890541 L12.5671619,12.5149513 L12.5671619,12.7840406 L0.685108621,24.1800864 L0.615594894,24.1133891 Z" id="path64" fill="url(#linearGradient-1)"></path>
                        <path d="M16.5234517,8.71435273 L12.5671619,12.5149513 L12.5671619,12.7840406 L16.5282458,16.5846391 L16.6169357,16.5351911 L21.3079138,13.9742431 C22.6466523,13.2474721 22.6466523,12.0515197 21.3079138,11.3201489 L16.6169357,8.76380076 L16.5234517,8.71435273 Z" id="path78" fill="url(#linearGradient-2)"></path>
                        <path d="M16.6169357,8.76380076 L12.5671619,12.6494959 L0.615594894,1.18100294 C1.06024304,0.732520809 1.78534313,0.678472963 2.60991975,1.12695509 L16.6169357,8.76380076" id="path88" fill="url(#linearGradient-3)"></path>
                        <path d="M16.6169357,16.5351911 L2.60991975,24.1720367 C1.78534313,24.6159191 1.06024304,24.5618712 0.615594894,24.1133891 L12.5671619,12.6494959 L16.6169357,16.5351911 Z" id="path104" fill="url(#linearGradient-4)"></path>
                    </g>
                </g>
            </g>
        </g>
    </g>
</svg>