<svg width="120" height="106" viewBox="0 0 120 106" fill="none" xmlns="http://www.w3.org/2000/svg">
<path fill-rule="evenodd" clip-rule="evenodd" d="M13.7847 96.4941H25.8464V103.731C25.8464 104.493 25.2292 105.11 24.4679 105.11H15.1632C14.4018 105.11 13.7847 104.493 13.7847 103.731V96.4941Z" fill="#1D2224"/>
<path fill-rule="evenodd" clip-rule="evenodd" d="M11.0278 96.4941H23.0896V103.731C23.0896 104.493 22.4724 105.11 21.7111 105.11H12.4063C11.645 105.11 11.0278 104.493 11.0278 103.731V96.4941Z" fill="#35C3A0"/>
<path fill-rule="evenodd" clip-rule="evenodd" d="M82.02 96.4941H94.0818V103.731C94.0818 104.493 93.4646 105.11 92.7033 105.11H83.3985C82.6372 105.11 82.02 104.493 82.02 103.731V96.4941Z" fill="#1D2224"/>
<path fill-rule="evenodd" clip-rule="evenodd" d="M79.2627 96.4941H91.3244V103.731C91.3244 104.493 90.7073 105.11 89.946 105.11H80.6412C79.8799 105.11 79.2627 104.493 79.2627 103.731V96.4941Z" fill="#35C3A0"/>
<path fill-rule="evenodd" clip-rule="evenodd" d="M88.4854 0C102.778 0.28306 110.945 0.544192 112.987 0.783396C115.294 1.65182 118.865 3.49537 118.865 8.96015C118.865 14.4249 120.018 74.9337 118.865 86.328C118.346 89.1986 119.096 91.4252 115.881 93.7907C111.175 96.4758 112.503 96.113 103.956 96.4758C98.2571 96.7176 94.0467 96.7237 91.3244 96.494L88.4854 0Z" fill="#35C3A0"/>
<path d="M88.5677 0H10.3386C4.62877 0 0 4.62877 0 10.3386V86.4999C0 92.2098 4.62877 96.8386 10.3386 96.8386H88.5677C94.2775 96.8386 98.9063 92.2098 98.9063 86.4999V10.3386C98.9063 4.62877 94.2775 0 88.5677 0Z" fill="url(#paint0_linear_208_600)"/>
<path d="M84.0877 8.95996H15.1634C11.3568 8.95996 8.271 12.0458 8.271 15.8524V80.6412C8.271 84.4478 11.3568 87.5336 15.1634 87.5336H84.0877C87.8943 87.5336 90.9801 84.4478 90.9801 80.6412V15.8524C90.9801 12.0458 87.8943 8.95996 84.0877 8.95996Z" fill="url(#paint1_linear_208_600)" stroke="#1D2224" stroke-width="1.37849"/>
<path d="M79.9521 13.7847H19.2987C16.4438 13.7847 14.1294 16.0991 14.1294 18.954V77.5396C14.1294 80.3945 16.4438 82.7089 19.2987 82.7089H79.9521C82.807 82.7089 85.1214 80.3945 85.1214 77.5396V18.954C85.1214 16.0991 82.807 13.7847 79.9521 13.7847Z" stroke="#35C3A0" stroke-width="1.37849"/>
<path fill-rule="evenodd" clip-rule="evenodd" d="M78.1093 51.0044C78.8414 51.0044 79.435 51.5979 79.435 52.3301V52.3748C79.435 53.107 78.8414 53.7005 78.1093 53.7005L64.8023 53.701C64.8351 53.8884 64.8522 54.0813 64.8522 54.2783C64.8522 56.0864 63.4108 57.5522 61.6327 57.5522C59.8545 57.5522 58.4131 56.0864 58.4131 54.2783C58.4131 52.4702 59.8545 51.0044 61.6327 51.0044C61.7505 51.0044 61.8669 51.0108 61.9815 51.0234C62.0525 51.0106 62.1259 51.0044 62.2008 51.0044H78.1093Z" fill="#1D2224"/>
<path fill-rule="evenodd" clip-rule="evenodd" d="M77.0756 50.3149C77.8078 50.3149 78.4013 50.9085 78.4013 51.6406V51.6854C78.4013 52.4176 77.8078 53.0111 77.0756 53.0111L63.7686 53.0116C63.8014 53.199 63.8185 53.3919 63.8185 53.5888C63.8185 55.397 62.3771 56.8627 60.599 56.8627C58.8208 56.8627 57.3794 55.397 57.3794 53.5888C57.3794 51.7807 58.8208 50.3149 60.599 50.3149C60.7168 50.3149 60.8332 50.3214 60.9478 50.3339C61.0188 50.3211 61.0922 50.3149 61.1671 50.3149H77.0756Z" fill="#35C3A0"/>
<path d="M37.564 63.0655C43.6545 63.0655 48.5919 58.1282 48.5919 52.0376C48.5919 45.9471 43.6545 41.0098 37.564 41.0098C31.4735 41.0098 26.5361 45.9471 26.5361 52.0376C26.5361 58.1282 31.4735 63.0655 37.564 63.0655Z" fill="#1D2224"/>
<path d="M34.1177 63.0655C40.2083 63.0655 45.1456 58.1282 45.1456 52.0376C45.1456 45.9471 40.2083 41.0098 34.1177 41.0098C28.0272 41.0098 23.0898 45.9471 23.0898 52.0376C23.0898 58.1282 28.0272 63.0655 34.1177 63.0655Z" fill="#1D2224" stroke="#35C3A0" stroke-width="1.03386"/>
<path fill-rule="evenodd" clip-rule="evenodd" d="M35.1517 41.0098L35.1525 48.3095C35.619 48.3953 36.0555 48.5664 36.4454 48.8062L41.3293 43.3811L42.3538 44.3035L37.4694 49.7289C37.8278 50.195 38.0802 50.7467 38.1907 51.3482L45.4903 51.3484V52.7269L38.1906 52.7277C38.1049 53.1938 37.934 53.6299 37.6946 54.0195L43.119 58.9045L42.1966 59.9289L36.7719 55.044C36.3058 55.4026 35.754 55.6552 35.1525 55.7658L35.1517 63.0655H33.7732L33.773 55.7659C33.2615 55.672 32.786 55.4753 32.3686 55.1982L27.2976 60.4492L26.306 59.4917L31.3767 54.2401C31.0602 53.7975 30.8366 53.2838 30.7343 52.7277L23.4346 52.7269V51.3484L30.7342 51.3482C30.8323 50.8141 31.0423 50.3193 31.3391 49.8888L26.1772 44.7271L27.1519 43.7524L32.3136 48.9142C32.7441 48.6175 33.2389 48.4075 33.773 48.3094L33.7732 41.0098H35.1517Z" fill="#35C3A0"/>
<defs>
<linearGradient id="paint0_linear_208_600" x1="49.4532" y1="0" x2="49.4532" y2="96.8386" gradientUnits="userSpaceOnUse">
<stop stop-color="#3CD895"/>
<stop offset="1" stop-color="#39EECC"/>
</linearGradient>
<linearGradient id="paint1_linear_208_600" x1="49.6255" y1="8.95996" x2="49.6255" y2="87.5336" gradientUnits="userSpaceOnUse">
<stop stop-color="#57FFB7"/>
<stop offset="1" stop-color="#36DEBE"/>
</linearGradient>
</defs>
</svg>
