<?xml version="1.0" encoding="UTF-8"?>
<svg width="20px" height="20px" viewBox="0 0 20 20" version="1.1" xmlns="http://www.w3.org/2000/svg" xmlns:xlink="http://www.w3.org/1999/xlink">
    <!-- Generator: Sketch 53.2 (72643) - https://sketchapp.com -->
    <title>icon_20pt</title>
    <desc>Created with Sketch.</desc>
    <g id="icon_20pt" stroke="none" stroke-width="1" fill="none" fill-rule="evenodd">
        <g id="Icon">
            <path d="M5.70865064,-2.30636319e-16 L14.2913494,2.30636319e-16 C16.2763716,-1.34006343e-16 16.9961886,0.206682025 17.721883,0.594787661 C18.4475775,0.982893297 19.0171067,1.55242254 19.4052123,2.27811699 C19.793318,3.00381143 20,3.72362845 20,5.70865064 L20,14.2913494 C20,16.2763716 19.793318,16.9961886 19.4052123,17.721883 C19.0171067,18.4475775 18.4475775,19.0171067 17.721883,19.4052123 C16.9961886,19.793318 16.2763716,20 14.2913494,20 L5.70865064,20 C3.72362845,20 3.00381143,19.793318 2.27811699,19.4052123 C1.55242254,19.0171067 0.982893297,18.4475775 0.594787661,17.721883 C0.206682025,16.9961886 8.93375619e-17,16.2763716 -1.53757546e-16,14.2913494 L1.53757546e-16,5.70865064 C-8.93375619e-17,3.72362845 0.206682025,3.00381143 0.594787661,2.27811699 C0.982893297,1.55242254 1.55242254,0.982893297 2.27811699,0.594787661 C3.00381143,0.206682025 3.72362845,1.34006343e-16 5.70865064,-2.30636319e-16 Z" id="Background" fill="#4B40EB"></path>
            <path d="M10,16.640625 C6.33248408,16.640625 3.359375,13.6675159 3.359375,10 C3.359375,6.33248408 6.33248408,3.359375 10,3.359375 C13.6675159,3.359375 16.640625,6.33248408 16.640625,10 C16.640625,13.6675159 13.6675159,16.640625 10,16.640625 Z M12.4937902,7.74247302 C11.5565756,6.74309473 10.6502381,6.3684082 9.77235612,6.3684082 C8.89447415,6.3684082 8.02264653,6.80607805 7.4680673,7.3973501 C6.86747494,8.03682366 6.31652832,9.10111334 6.31652832,10.2026789 C6.31652832,11.3048871 6.72580295,12.0806103 7.19925378,12.5851196 C7.80287332,13.229092 8.70921078,13.6834717 10.0581218,13.6834717 C11.1230835,13.6834717 12.1020733,13.4173993 12.9860096,12.4752201 C13.5623845,11.861454 13.6834717,11.1410019 13.6834717,10.649989 C13.6834717,9.97259692 13.4310049,8.74185131 12.4937902,7.74247302 Z" id="Combined-Shape" fill="#FFFFFF"></path>
        </g>
    </g>
</svg>