<svg width="203" height="320" viewBox="0 0 203 320" fill="none" xmlns="http://www.w3.org/2000/svg">
<g clip-path="url(#clip0)">
<g opacity="0.25486" filter="url(#filter0_f)">
<rect x="1" y="16.6529" width="201" height="303.347"/>
</g>
<mask id="mask0" mask-type="alpha" maskUnits="userSpaceOnUse" x="1" y="16" width="201" height="304">
<rect opacity="0.25486" x="1" y="16.6529" width="201" height="303.347"/>
</mask>
<g mask="url(#mask0)">
<g opacity="0.25486" filter="url(#filter1_f)">
<rect x="1" y="16.6529" width="201" height="303.347" fill="black"/>
</g>
</g>
<rect x="0.599609" y="0.433273" width="201.514" height="319.51" rx="8.42833" fill="url(#paint0_radial)"/>
<mask id="path-6-inside-1" fill="white">
<path fill-rule="evenodd" clip-rule="evenodd" d="M166.431 40.6848C167.17 40.2598 168.115 40.5149 168.54 41.2545C173.359 49.6413 173.359 59.9734 168.54 68.3602C168.115 69.0998 167.17 69.3549 166.431 68.9299C165.691 68.5049 165.436 67.5607 165.861 66.821C170.133 59.3872 170.133 50.2275 165.861 42.7937C165.436 42.054 165.691 41.1098 166.431 40.6848ZM160.767 43.4971C161.507 43.0721 162.451 43.3272 162.876 44.0668C166.695 50.7134 166.695 58.9013 162.876 65.5479C162.451 66.2875 161.507 66.5426 160.767 66.1176C160.027 65.6925 159.772 64.7484 160.197 64.0087C163.469 58.3152 163.469 51.2995 160.197 45.606C159.772 44.8663 160.027 43.9221 160.767 43.4971ZM155.496 46.1781C156.237 45.7565 157.18 46.0158 157.602 46.7574C160.435 51.7397 160.435 57.875 157.602 62.8573C157.18 63.5989 156.237 63.8582 155.496 63.4366C154.754 63.0149 154.495 62.0719 154.916 61.3303C157.211 57.2949 157.211 52.3198 154.916 48.2844C154.495 47.5428 154.754 46.5998 155.496 46.1781ZM150.004 48.9148C150.717 48.4461 151.675 48.6439 152.143 49.3567C154.334 52.6881 154.334 56.9266 152.143 60.258C151.675 60.9708 150.717 61.1686 150.004 60.6999C149.291 60.2312 149.094 59.2734 149.562 58.5606C151.076 56.2594 151.076 53.3553 149.562 51.0541C149.094 50.3413 149.291 49.3835 150.004 48.9148Z"/>
</mask>
<path d="M168.54 41.2545L165.938 42.7492L168.54 41.2545ZM166.431 40.6848L164.936 38.0837L166.431 40.6848ZM168.54 68.3602L165.938 66.8655L165.938 66.8655L168.54 68.3602ZM166.431 68.9299L167.925 66.3287L167.925 66.3287L166.431 68.9299ZM165.861 66.821L168.462 68.3157L165.861 66.821ZM165.861 42.7937L163.26 44.2883L165.861 42.7937ZM162.876 44.0668L165.477 42.5722V42.5722L162.876 44.0668ZM160.767 43.4971L159.272 40.896L159.272 40.896L160.767 43.4971ZM162.876 65.5479L160.275 64.0532L160.275 64.0532L162.876 65.5479ZM160.767 66.1176L162.262 63.5164L162.262 63.5164L160.767 66.1176ZM160.197 64.0087L162.799 65.5034H162.799L160.197 64.0087ZM160.197 45.606L157.596 47.1006L160.197 45.606ZM157.602 46.7574L160.21 45.2746L157.602 46.7574ZM155.496 46.1781L154.013 43.5702V43.5702L155.496 46.1781ZM157.602 62.8573L154.994 61.3745H154.994L157.602 62.8573ZM155.496 63.4366L154.013 66.0445H154.013L155.496 63.4366ZM154.916 61.3303L157.524 62.8131H157.524L154.916 61.3303ZM154.916 48.2844L152.308 49.7671V49.7671L154.916 48.2844ZM152.143 49.3567L149.637 51.005L152.143 49.3567ZM150.004 48.9148L151.653 51.4214V51.4214L150.004 48.9148ZM152.143 60.258L149.637 58.6097L149.637 58.6097L152.143 60.258ZM150.004 60.6999L148.356 63.2065L148.356 63.2065L150.004 60.6999ZM149.562 58.5606L152.069 60.209L152.069 60.209L149.562 58.5606ZM149.562 51.0541L152.069 49.4057L149.562 51.0541ZM171.141 39.7598C169.89 37.5836 167.112 36.8332 164.936 38.0837L167.925 43.286C167.229 43.6864 166.339 43.4461 165.938 42.7492L171.141 39.7598ZM171.141 69.8548C176.492 60.5425 176.492 49.0722 171.141 39.7598L165.938 42.7492C170.226 50.2105 170.226 59.4042 165.938 66.8655L171.141 69.8548ZM164.936 71.531C167.112 72.7815 169.89 72.0311 171.141 69.8548L165.938 66.8655C166.339 66.1686 167.229 65.9283 167.925 66.3287L164.936 71.531ZM163.26 65.3264C162.009 67.5026 162.76 70.2805 164.936 71.531L167.925 66.3287C168.622 66.7292 168.863 67.6188 168.462 68.3157L163.26 65.3264ZM163.26 44.2883C167 50.7966 167 58.8181 163.26 65.3264L168.462 68.3157C173.266 59.9564 173.266 49.6583 168.462 41.299L163.26 44.2883ZM164.936 38.0837C162.76 39.3342 162.009 42.1121 163.26 44.2883L168.462 41.299C168.863 41.9959 168.622 42.8855 167.925 43.286L164.936 38.0837ZM165.477 42.5722C164.227 40.3959 161.449 39.6455 159.272 40.896L162.262 46.0983C161.565 46.4987 160.675 46.2584 160.275 45.5615L165.477 42.5722ZM165.477 67.0425C169.828 59.4705 169.828 50.1442 165.477 42.5722L160.275 45.5615C163.562 51.2826 163.562 58.3321 160.275 64.0532L165.477 67.0425ZM159.272 68.7187C161.449 69.9692 164.227 69.2188 165.477 67.0425L160.275 64.0532C160.675 63.3563 161.565 63.116 162.262 63.5164L159.272 68.7187ZM157.596 62.514C156.346 64.6903 157.096 67.4682 159.272 68.7187L162.262 63.5164C162.959 63.9169 163.199 64.8065 162.799 65.5034L157.596 62.514ZM157.596 47.1006C160.336 51.8687 160.336 57.746 157.596 62.514L162.799 65.5034C166.602 58.8844 166.602 50.7303 162.799 44.1113L157.596 47.1006ZM159.272 40.896C157.096 42.1465 156.346 44.9244 157.596 47.1006L162.799 44.1113C163.199 44.8082 162.959 45.6978 162.262 46.0983L159.272 40.896ZM160.21 45.2746C158.969 43.0927 156.195 42.3296 154.013 43.5702L156.978 48.786C156.28 49.1833 155.391 48.9389 154.994 48.2402L160.21 45.2746ZM160.21 64.3401C163.565 58.4384 163.565 51.1763 160.21 45.2746L154.994 48.2402C157.304 52.3031 157.304 57.3116 154.994 61.3745L160.21 64.3401ZM154.013 66.0445C156.195 67.2851 158.969 66.522 160.21 64.3401L154.994 61.3745C155.391 60.6757 156.28 60.4314 156.978 60.8286L154.013 66.0445ZM152.308 59.8475C151.068 62.0295 151.831 64.8039 154.013 66.0445L156.978 60.8286C157.677 61.2259 157.922 62.1144 157.524 62.8131L152.308 59.8475ZM152.308 49.7671C154.08 52.8832 154.08 56.7315 152.308 59.8475L157.524 62.8131C160.341 57.8582 160.341 51.7565 157.524 46.8016L152.308 49.7671ZM154.013 43.5702C151.831 44.8108 151.068 47.5852 152.308 49.7671L157.524 46.8016C157.922 47.5003 157.677 48.3888 156.978 48.786L154.013 43.5702ZM154.65 47.7083C153.271 45.6112 150.453 45.0291 148.356 46.4082L151.653 51.4214C150.981 51.863 150.079 51.6766 149.637 51.005L154.65 47.7083ZM154.65 61.9064C157.499 57.5746 157.499 52.0401 154.65 47.7083L149.637 51.005C151.17 53.336 151.17 56.2787 149.637 58.6097L154.65 61.9064ZM148.356 63.2065C150.453 64.5856 153.271 64.0035 154.65 61.9064L149.637 58.6097C150.079 57.9381 150.981 57.7517 151.653 58.1933L148.356 63.2065ZM147.056 56.9122C145.677 59.0093 146.259 61.8274 148.356 63.2065L151.653 58.1933C152.324 58.635 152.51 59.5374 152.069 60.209L147.056 56.9122ZM147.056 52.7025C147.911 54.0032 147.911 55.6115 147.056 56.9122L152.069 60.209C154.24 56.9073 154.24 52.7073 152.069 49.4057L147.056 52.7025ZM148.356 46.4082C146.259 47.7873 145.677 50.6053 147.056 52.7025L152.069 49.4057C152.51 50.0773 152.324 50.9797 151.653 51.4214L148.356 46.4082Z" fill="white" mask="url(#path-6-inside-1)"/>
<rect x="104.583" y="33.507" width="33.7133" height="41.3755" rx="6.1297" fill="#E7E7E7" fill-opacity="0.8" style="mix-blend-mode:luminosity"/>
<path d="M156.065 273.005H171.815V301.117H156.065V273.005Z" fill="#FF5F00"/>
<path d="M157.065 287.061C157.065 281.349 159.765 276.283 163.915 273.005C160.865 270.621 157.015 269.181 152.815 269.181C142.865 269.181 134.815 277.177 134.815 287.061C134.815 296.945 142.865 304.941 152.815 304.941C157.015 304.941 160.865 303.501 163.915 301.117C159.765 297.889 157.065 292.773 157.065 287.061Z" fill="#EB001B"/>
<path d="M193.065 287.061C193.065 296.945 185.015 304.941 175.065 304.941C170.865 304.941 167.015 303.501 163.965 301.117C168.165 297.839 170.815 292.773 170.815 287.061C170.815 281.349 168.115 276.283 163.965 273.005C167.015 270.621 170.865 269.181 175.065 269.181C185.015 269.181 193.065 277.227 193.065 287.061Z" fill="#F79E1B"/>
<path fill-rule="evenodd" clip-rule="evenodd" d="M106.156 161.685V158.856H111.479V180.163H106.156V177.289C104.688 179.57 101.66 180.62 99.0449 180.62C93.4015 180.62 88.4923 176.285 88.4923 169.487C88.4923 162.643 93.3557 158.4 98.999 158.4C101.706 158.4 104.688 159.449 106.156 161.685ZM76.8774 172.994L81.3335 159.166H86.9599L79.398 180.62H74.9869L70.0807 165.965L65.3995 180.62H61.0334L53.2465 159.166H58.8729L63.329 172.994L67.7851 159.166H72.4213L76.8774 172.994ZM99.8933 175.256C96.5749 175.256 93.8558 172.623 93.8558 169.081C93.8558 165.539 96.5749 162.997 99.8933 162.997C102.981 162.997 106.115 165.358 106.115 169.081C106.115 172.804 103.166 175.256 99.8933 175.256ZM116.842 180.62V159.166C116.842 159.166 128.736 159.289 130.634 159.289V164.076H122.17V173.077V180.62H116.842ZM146.133 158.4C143.563 158.4 140.489 159.449 139.021 161.686V158.856H133.699V190.58H139.021V177.297C140.489 179.58 143.471 180.584 146.178 180.584C151.822 180.584 156.685 176.339 156.685 169.492C156.685 162.69 151.776 158.4 146.133 158.4ZM139.062 169.172C139.062 172.895 142.185 175.256 145.261 175.256C148.567 175.256 151.322 172.714 151.322 169.172C151.322 165.63 148.567 162.997 145.261 162.997C142.001 162.997 139.062 165.449 139.062 169.172Z" fill="#FDFAFF"/>
</g>
<defs>
<filter id="filter0_f" x="-48.2943" y="-32.6414" width="299.589" height="401.936" filterUnits="userSpaceOnUse" color-interpolation-filters="sRGB">
<feFlood flood-opacity="0" result="BackgroundImageFix"/>
<feBlend mode="normal" in="SourceGraphic" in2="BackgroundImageFix" result="shape"/>
<feGaussianBlur stdDeviation="24.6472" result="effect1_foregroundBlur"/>
</filter>
<filter id="filter1_f" x="-48.2943" y="-32.6414" width="299.589" height="401.936" filterUnits="userSpaceOnUse" color-interpolation-filters="sRGB">
<feFlood flood-opacity="0" result="BackgroundImageFix"/>
<feBlend mode="normal" in="SourceGraphic" in2="BackgroundImageFix" result="shape"/>
<feGaussianBlur stdDeviation="24.6472" result="effect1_foregroundBlur"/>
</filter>
<radialGradient id="paint0_radial" cx="0" cy="0" r="1" gradientUnits="userSpaceOnUse" gradientTransform="translate(101.356 0.433273) rotate(90) scale(319.51 201.514)">
<stop stop-color="#9B52FF"/>
<stop offset="1" stop-color="#7B20F9"/>
</radialGradient>
<clipPath id="clip0">
<rect x="0.599609" y="0.433273" width="201.514" height="319.567" fill="white"/>
</clipPath>
</defs>
</svg>
