<svg width="157" height="157" viewBox="0 0 157 157" fill="none" xmlns="http://www.w3.org/2000/svg">
<g clip-path="url(#clip0)">
<path d="M136.519 156.893L8.33167 116.537L28.8309 51.4709L157 74.2003L136.519 156.893Z" fill="#AFDBC0"/>
<path d="M109.21 112.531C113.827 97.8699 105.684 82.2417 91.0229 77.6246C76.3616 73.0076 60.7335 81.15 56.1164 95.8113C51.4993 110.473 59.6418 126.101 74.3031 130.718C88.9643 135.335 104.593 127.192 109.21 112.531Z" fill="white"/>
<path d="M126.439 148.936C126.261 148.963 126.081 148.963 125.903 148.936L90.9887 137.839C90.6181 137.731 90.2926 137.505 90.061 137.197C89.8294 136.888 89.7042 136.512 89.7042 136.126C89.7042 135.74 89.8294 135.365 90.061 135.056C90.2926 134.747 90.6181 134.522 90.9887 134.413C96.0425 133.028 100.667 130.396 104.439 126.758C108.211 123.12 111.009 118.593 112.576 113.593C114.154 108.599 114.454 103.288 113.447 98.1483C112.44 93.0083 110.159 88.2032 106.814 84.1735C106.544 83.872 106.384 83.4876 106.361 83.0836C106.339 82.6795 106.454 82.2797 106.688 81.9498C106.923 81.6199 107.263 81.3795 107.652 81.2681C108.041 81.1567 108.456 81.1809 108.83 81.3368L143.762 92.3446C144.193 92.5024 144.547 92.8205 144.75 93.2325C144.953 93.6446 144.989 94.1189 144.85 94.5569C144.498 95.6901 144.607 96.917 145.155 97.9698C145.703 99.0226 146.646 99.816 147.776 100.177C148.225 100.32 148.598 100.635 148.816 101.053C149.033 101.471 149.076 101.957 148.936 102.407L136.001 143.584C135.858 144.032 135.543 144.406 135.125 144.623C134.707 144.84 134.221 144.883 133.771 144.743C132.638 144.39 131.411 144.5 130.358 145.048C129.305 145.596 128.512 146.538 128.151 147.669C128.034 148.045 127.795 148.372 127.472 148.597C127.149 148.823 126.761 148.936 126.367 148.918L126.439 148.936ZM97.0546 136.019L125.457 144.94C126.222 143.624 127.343 142.551 128.69 141.844C130.038 141.137 131.558 140.825 133.075 140.943L145.082 102.835C143.773 102.066 142.707 100.943 142.007 99.5955C141.306 98.2481 140.999 96.7306 141.122 95.217L112.719 86.2965C115.237 90.5288 116.829 95.2474 117.389 100.14C117.949 105.034 117.464 109.99 115.966 114.681C114.499 119.372 112.055 123.698 108.795 127.375C105.536 131.053 101.534 133.999 97.0546 136.019Z" fill="#354EA2"/>
<path d="M43.1797 91.741C43.9048 89.4384 42.626 86.984 40.3234 86.2589C38.0209 85.5338 35.5664 86.8126 34.8413 89.1151C34.1162 91.4177 35.395 93.8721 37.6976 94.5972C40.0001 95.3224 42.4546 94.0436 43.1797 91.741Z" fill="#354EA2"/>
<path d="M33.9958 80.5553L35.0663 77.1512L49.8385 81.8024L48.7663 85.2064L33.9958 80.5553ZM28.1654 99.0456L29.2359 95.6434L44.0081 100.294L42.9359 103.697L28.1654 99.0456Z" fill="#354EA2"/>
<path d="M131.217 119.477C131.942 117.174 130.663 114.72 128.361 113.995C126.058 113.269 123.604 114.548 122.878 116.851C122.153 119.153 123.432 121.608 125.735 122.333C128.037 123.058 130.492 121.779 131.217 119.477Z" fill="#354EA2"/>
<path d="M122.055 108.275L123.127 104.871L137.9 109.524L136.827 112.926L122.055 108.275ZM116.219 126.788L117.29 123.384L132.062 128.037L130.992 131.439L116.219 126.788ZM57.0909 127.099C56.9135 127.126 56.7331 127.126 56.5557 127.099L21.641 115.966C21.1926 115.822 20.819 115.507 20.6018 115.09C20.3846 114.672 20.3413 114.185 20.4814 113.736C20.8343 112.602 20.7247 111.376 20.1766 110.323C19.6285 109.27 18.6863 108.477 17.5555 108.116C17.107 107.972 16.7334 107.657 16.5162 107.24C16.299 106.822 16.2557 106.335 16.3958 105.886L29.3483 64.7446C29.4918 64.2962 29.8067 63.9226 30.2245 63.7054C30.6422 63.4881 31.1289 63.4449 31.5784 63.585C32.7117 63.9379 33.9386 63.8283 34.9914 63.2802C36.0442 62.732 36.8375 61.7898 37.1983 60.6591C37.3418 60.2106 37.6567 59.837 38.0745 59.6198C38.4922 59.4026 38.9789 59.3593 39.4284 59.4994L74.3609 70.5072C74.7315 70.6153 75.057 70.8407 75.2887 71.1495C75.5203 71.4583 75.6455 71.8339 75.6455 72.22C75.6455 72.606 75.5203 72.9816 75.2887 73.2904C75.057 73.5992 74.7315 73.8246 74.3609 73.9327C69.3088 75.3198 64.6846 77.9504 60.9105 81.5842C57.1365 85.2181 54.3328 89.7395 52.7556 94.7355C51.1784 99.7316 50.8778 105.043 51.8813 110.185C52.8848 115.327 55.1604 120.136 58.5004 124.173C58.7196 124.436 58.8585 124.756 58.9005 125.096C58.9425 125.436 58.8858 125.781 58.7372 126.089C58.5886 126.398 58.3543 126.657 58.0624 126.836C57.7705 127.015 57.4333 127.106 57.0909 127.099ZM24.228 113.093L52.6307 122.014C50.1179 117.787 48.5257 113.078 47.9582 108.194C47.3908 103.309 47.8609 98.3601 49.3379 93.67C50.8148 88.9799 53.2652 84.6544 56.5289 80.9765C59.7926 77.2986 63.796 74.3512 68.2772 72.327L39.8923 63.4066C39.1252 64.7191 38.0035 65.7886 36.6559 66.4924C35.3084 67.1961 33.7897 67.5055 32.2742 67.3851L20.2673 105.475C21.5765 106.245 22.6425 107.368 23.343 108.715C24.0435 110.062 24.3502 111.58 24.228 113.093Z" fill="#354EA2"/>
<path d="M136.519 156.893L8.33167 116.537L28.8309 51.4709L157 74.2003L136.519 156.893Z" fill="#F4F4FA"/>
<path d="M82.6569 131.024C77.0211 131.012 71.5329 129.221 66.9747 125.907C62.4165 122.592 59.0211 117.923 57.2725 112.566C55.5239 107.208 55.5113 101.435 57.2367 96.0696C58.962 90.7044 62.3372 86.0208 66.8809 82.6866C71.4247 79.3524 76.9051 77.5378 82.5408 77.5015C88.1765 77.4652 93.6798 79.2091 98.2661 82.4845C102.852 85.7599 106.288 90.3996 108.082 95.7422C109.876 101.085 109.938 106.857 108.259 112.237C106.556 117.692 103.152 122.458 98.5454 125.838C93.9386 129.218 88.3709 131.036 82.6569 131.024ZM82.6569 80.9085C77.7101 80.9179 72.8946 82.5014 68.9077 85.4299C64.9207 88.3583 61.9693 92.4797 60.4807 97.1973C59.027 101.859 59.0819 106.861 60.6373 111.489C62.1928 116.118 65.1695 120.138 69.1433 122.976C73.1172 125.814 77.8853 127.325 82.7684 127.294C87.6514 127.264 92.4002 125.692 96.338 122.805C100.276 119.917 103.202 115.86 104.699 111.212C106.196 106.564 106.188 101.562 104.675 96.9191C103.163 92.276 100.224 88.2286 96.2768 85.3538C92.3296 82.479 87.5757 80.9233 82.6926 80.9085H82.6569Z" fill="#D8D8E4"/>
<path d="M126.439 148.936C126.261 148.963 126.081 148.963 125.903 148.936L90.9887 137.839C90.6181 137.731 90.2926 137.505 90.061 137.197C89.8294 136.888 89.7042 136.512 89.7042 136.126C89.7042 135.74 89.8294 135.365 90.061 135.056C90.2926 134.747 90.6181 134.522 90.9887 134.413C96.0425 133.028 100.667 130.396 104.439 126.758C108.211 123.12 111.009 118.593 112.576 113.593C114.154 108.599 114.454 103.288 113.447 98.1483C112.44 93.0083 110.159 88.2032 106.814 84.1735C106.544 83.872 106.384 83.4876 106.361 83.0836C106.339 82.6795 106.454 82.2797 106.688 81.9498C106.923 81.6199 107.263 81.3795 107.652 81.2681C108.041 81.1567 108.456 81.1809 108.83 81.3368L143.762 92.3446C144.193 92.5024 144.547 92.8205 144.75 93.2325C144.953 93.6446 144.989 94.1189 144.85 94.5569C144.498 95.6901 144.607 96.917 145.155 97.9698C145.703 99.0226 146.646 99.816 147.776 100.177C148.225 100.32 148.598 100.635 148.816 101.053C149.033 101.471 149.076 101.957 148.936 102.407L136.001 143.584C135.858 144.032 135.543 144.406 135.125 144.623C134.707 144.84 134.221 144.883 133.771 144.743C132.638 144.39 131.411 144.5 130.358 145.048C129.305 145.596 128.512 146.538 128.151 147.669C128.034 148.045 127.795 148.372 127.472 148.597C127.149 148.823 126.761 148.936 126.367 148.918L126.439 148.936ZM97.0546 136.019L125.457 144.94C126.222 143.624 127.343 142.551 128.69 141.844C130.038 141.137 131.558 140.825 133.075 140.943L145.082 102.835C143.773 102.066 142.707 100.943 142.007 99.5955C141.306 98.2481 140.999 96.7306 141.122 95.217L112.719 86.2965C115.237 90.5288 116.829 95.2474 117.389 100.14C117.949 105.034 117.464 109.99 115.966 114.681C114.499 119.372 112.055 123.698 108.795 127.375C105.536 131.053 101.534 133.999 97.0546 136.019Z" fill="#D8D8E4"/>
<path d="M131.217 119.477C131.942 117.174 130.663 114.72 128.361 113.995C126.058 113.269 123.604 114.548 122.878 116.851C122.153 119.153 123.432 121.608 125.735 122.333C128.037 123.058 130.492 121.779 131.217 119.477Z" fill="#D8D8E4"/>
<path d="M122.055 108.275L123.127 104.871L137.9 109.524L136.827 112.926L122.055 108.275ZM116.219 126.788L117.29 123.384L132.062 128.037L130.992 131.439L116.219 126.788ZM57.0909 127.099C56.9135 127.126 56.7331 127.126 56.5557 127.099L21.641 115.966C21.1926 115.822 20.819 115.507 20.6018 115.09C20.3846 114.672 20.3413 114.185 20.4814 113.736C20.8343 112.602 20.7247 111.376 20.1766 110.323C19.6285 109.27 18.6863 108.477 17.5555 108.116C17.107 107.972 16.7334 107.657 16.5162 107.24C16.299 106.822 16.2557 106.335 16.3958 105.886L29.3483 64.7446C29.4918 64.2962 29.8067 63.9226 30.2245 63.7054C30.6422 63.4881 31.1289 63.4449 31.5784 63.585C32.7117 63.9379 33.9386 63.8283 34.9914 63.2802C36.0442 62.732 36.8375 61.7898 37.1983 60.6591C37.3418 60.2106 37.6567 59.837 38.0745 59.6198C38.4922 59.4026 38.9789 59.3593 39.4284 59.4994L74.3609 70.5072C74.7315 70.6153 75.057 70.8407 75.2887 71.1495C75.5203 71.4583 75.6455 71.8339 75.6455 72.22C75.6455 72.606 75.5203 72.9816 75.2887 73.2904C75.057 73.5992 74.7315 73.8246 74.3609 73.9327C69.3088 75.3198 64.6846 77.9504 60.9105 81.5842C57.1365 85.2181 54.3328 89.7395 52.7556 94.7355C51.1784 99.7316 50.8778 105.043 51.8813 110.185C52.8848 115.327 55.1604 120.136 58.5004 124.173C58.7196 124.436 58.8585 124.756 58.9005 125.096C58.9425 125.436 58.8858 125.781 58.7372 126.089C58.5886 126.398 58.3543 126.657 58.0624 126.836C57.7705 127.015 57.4333 127.106 57.0909 127.099ZM24.228 113.093L52.6307 122.014C50.1179 117.787 48.5257 113.078 47.9582 108.194C47.3908 103.309 47.8609 98.3601 49.3379 93.67C50.8148 88.9799 53.2652 84.6544 56.5289 80.9765C59.7926 77.2986 63.796 74.3512 68.2772 72.327L39.8923 63.4066C39.1252 64.7191 38.0035 65.7886 36.6559 66.4924C35.3084 67.1961 33.7897 67.5055 32.2742 67.3851L20.2673 105.475C21.5765 106.245 22.6425 107.368 23.343 108.715C24.0435 110.062 24.3502 111.58 24.228 113.093Z" fill="#D8D8E4"/>
<path d="M14.394 49.3069L148.766 48.1348L149.362 116.337L14.9899 117.511L14.394 49.3069Z" fill="#80D6E9"/>
<path d="M81.8719 109.668C74.8021 109.668 68.0195 106.871 63.0053 101.887C57.9912 96.9027 55.153 90.137 55.1106 83.0673C55.0705 79.5469 55.7255 76.0533 57.038 72.7865C58.3504 69.5197 60.2946 66.5439 62.759 64.0298C65.2235 61.5156 68.1598 59.5124 71.3997 58.135C74.6396 56.7575 78.1195 56.0329 81.64 56.0026H81.8719C88.9884 55.9766 95.8237 58.7786 100.874 63.7924C105.925 68.8061 108.777 75.6207 108.803 82.7372C108.829 89.8537 106.027 96.689 101.013 101.74C95.9993 106.79 89.1847 109.642 82.0682 109.668H81.8719ZM81.8719 59.5708H81.6757C78.6178 59.5871 75.5933 60.2079 72.7762 61.3975C69.9592 62.5871 67.4052 64.3221 65.2612 66.5025C63.1172 68.683 61.4256 71.2659 60.2837 74.1026C59.1417 76.9393 58.572 79.9739 58.6074 83.0316C58.6602 87.607 60.0652 92.0646 62.6456 95.8433C65.2259 99.622 68.8664 102.553 73.1088 104.268C77.3512 105.982 82.0059 106.403 86.4871 105.478C90.9684 104.554 95.076 102.324 98.2929 99.0697C101.51 95.8157 103.692 91.6828 104.566 87.1912C105.439 82.6996 104.964 78.0501 103.201 73.8276C101.438 69.6052 98.4658 65.9986 94.6577 63.4617C90.8497 60.9249 86.3763 59.5711 81.8006 59.5708H81.8719Z" fill="#3579AA"/>
<path d="M100.141 112.291C99.7599 112.288 99.3897 112.163 99.0847 111.934C98.7797 111.705 98.5559 111.385 98.4462 111.02C98.3365 110.655 98.3466 110.264 98.475 109.906C98.6034 109.547 98.8434 109.238 99.1598 109.026C103.531 106.143 107.112 102.211 109.574 97.5892C112.036 92.9675 113.302 87.8028 113.255 82.5664C113.209 77.3299 111.853 72.1883 109.31 67.6106C106.767 63.033 103.118 59.1649 98.6959 56.3594C98.374 56.1515 98.1275 55.8454 97.9931 55.4865C97.8586 55.1277 97.8433 54.735 97.9493 54.3668C98.0554 53.9985 98.2773 53.6742 98.582 53.4418C98.8868 53.2095 99.2583 53.0814 99.6415 53.0766L136.269 52.7555C136.741 52.7655 137.192 52.9498 137.536 53.2729C137.872 53.6023 138.064 54.0512 138.071 54.5217C138.074 55.1104 138.195 55.6924 138.424 56.2344C138.654 56.7764 138.989 57.2676 139.409 57.6796C140.262 58.502 141.4 58.9623 142.585 58.9641C142.819 58.9628 143.052 59.0078 143.269 59.0966C143.487 59.1853 143.685 59.3162 143.851 59.4815C144.187 59.8109 144.38 60.2598 144.386 60.7304L144.761 103.852C144.761 104.325 144.573 104.779 144.239 105.113C143.904 105.448 143.45 105.636 142.977 105.636C142.387 105.641 141.805 105.762 141.262 105.992C140.719 106.223 140.227 106.558 139.815 106.979C139.402 107.4 139.076 107.898 138.857 108.446C138.637 108.993 138.528 109.578 138.535 110.168C138.535 110.641 138.347 111.095 138.012 111.429C137.678 111.764 137.224 111.952 136.751 111.952L100.123 112.273L100.141 112.291ZM104.94 56.5734C108.635 59.8187 111.604 63.8075 113.651 68.279C115.698 72.7504 116.778 77.6037 116.82 82.5214C116.862 87.439 115.865 92.3101 113.895 96.816C111.925 101.322 109.025 105.361 105.386 108.669L135.163 108.419C135.491 106.935 136.231 105.574 137.297 104.492C138.364 103.409 139.714 102.65 141.193 102.3L140.854 62.3539C139.372 62.0271 138.013 61.2899 136.931 60.2267C135.849 59.1634 135.087 57.817 134.735 56.3415L104.94 56.5734Z" fill="#3579AA"/>
<path d="M36.1415 87.6016C38.5555 87.5806 40.4953 85.6066 40.4743 83.1926C40.4532 80.7787 38.4792 78.8389 36.0653 78.8599C33.6513 78.881 31.7115 80.855 31.7325 83.2689C31.7536 85.6829 33.7276 87.6227 36.1415 87.6016Z" fill="#354EA2"/>
<path d="M28.2422 71.8095L43.7281 71.674L43.7584 75.2421L28.2725 75.3777L28.2422 71.8095ZM28.4117 91.2187L43.8976 91.0831L43.9279 94.6513L28.442 94.7869L28.4117 91.2187Z" fill="#354EA2"/>
<path d="M127.687 87.9022C130.101 87.9022 132.058 85.9452 132.058 83.5312C132.058 81.1171 130.101 79.1602 127.687 79.1602C125.273 79.1602 123.316 81.1171 123.316 83.5312C123.316 85.9452 125.273 87.9022 127.687 87.9022Z" fill="#3579AA"/>
<path d="M120.54 71.0051L136.026 70.8695L136.058 74.4377L120.572 74.5733L120.54 71.0051Z" fill="#354EA2"/>
<path d="M120.729 90.4125L136.214 90.2787L136.244 93.8469L120.758 93.9807L120.729 90.4125ZM27.475 112.933C27.0018 112.933 26.548 112.745 26.2135 112.411C25.8789 112.076 25.6909 111.622 25.6909 111.149C25.663 109.964 25.1739 108.837 24.3275 108.007C23.4812 107.178 22.3445 106.711 21.1593 106.707C20.9228 106.722 20.686 106.683 20.4666 106.593C20.2473 106.504 20.051 106.365 19.8926 106.189C19.5565 105.86 19.3641 105.411 19.3574 104.94L18.9827 61.8189C18.9827 61.3457 19.1707 60.8919 19.5053 60.5573C19.8399 60.2227 20.2936 60.0348 20.7668 60.0348C21.3564 60.0301 21.9393 59.9091 22.482 59.6786C23.0247 59.4481 23.5165 59.1127 23.9292 58.6917C24.342 58.2706 24.6675 57.7722 24.8872 57.2251C25.1068 56.6779 25.2163 56.0927 25.2092 55.5032C25.2092 55.03 25.3972 54.5762 25.7318 54.2416C26.0663 53.9071 26.5201 53.7191 26.9933 53.7191L63.6207 53.398C64.0034 53.3971 64.3762 53.5193 64.6841 53.7466C64.992 53.9738 65.2187 54.294 65.3307 54.66C65.4427 55.0259 65.434 55.4182 65.306 55.7788C65.178 56.1395 64.9374 56.4494 64.6198 56.6628C60.2482 59.5459 56.668 63.4776 54.2058 68.0993C51.7437 72.7211 50.478 77.8857 50.5241 83.1222C50.5702 88.3587 51.9267 93.5003 54.4699 98.0779C57.0131 102.656 60.6619 106.524 65.0836 109.329C65.4056 109.537 65.652 109.843 65.7865 110.202C65.921 110.561 65.9363 110.954 65.8302 111.322C65.7241 111.69 65.5023 112.014 65.1975 112.247C64.8928 112.479 64.5213 112.607 64.1381 112.612L27.5107 112.933H27.475ZM22.9256 103.335C24.4071 103.661 25.7667 104.399 26.8489 105.462C27.9311 106.525 28.6921 107.872 29.045 109.347L58.875 109.079C55.1799 105.834 52.2117 101.845 50.1646 97.3739C48.1174 92.9025 47.0374 88.0491 46.9953 83.1315C46.9532 78.2139 47.9499 73.3428 49.9202 68.8369C51.8905 64.331 54.79 60.292 58.429 56.984L28.5455 57.2516C28.2187 58.7331 27.4815 60.0927 26.4182 61.1749C25.355 62.2571 24.0086 63.0181 22.5331 63.371L22.9256 103.335Z" fill="#3579AA"/>
<path d="M-0.00177002 51.7154L127.454 9.14343L149.063 73.8346L21.6071 116.408L-0.00177002 51.7154Z" fill="#AFDBC0"/>
<path d="M74.5037 89.6326C67.7387 89.6366 61.2202 87.0935 56.2452 82.5094C51.2701 77.9253 48.2033 71.6362 47.6548 64.8935C47.1063 58.1508 49.1164 51.4487 53.2851 46.1208C57.4539 40.7929 63.4756 37.2297 70.1523 36.1402C76.829 35.0507 83.6711 36.5148 89.3173 40.2411C94.9635 43.9674 98.9999 49.6828 100.623 56.2501C102.247 62.8174 101.338 69.7552 98.0786 75.683C94.8189 81.6108 89.4469 86.0942 83.0316 88.241C80.2831 89.1638 77.4029 89.6338 74.5037 89.6326ZM74.5037 39.5175C70.8137 39.507 67.1745 40.3771 63.8883 42.0555C60.6022 43.7339 57.7639 46.1721 55.6092 49.1677C53.4546 52.1633 52.0458 55.6297 51.4998 59.2791C50.9539 62.9284 51.2865 66.6554 52.4702 70.1504C53.8401 74.1846 56.2948 77.7636 59.565 80.4946C62.8351 83.2255 66.7944 85.0029 71.0082 85.6318C75.2221 86.2607 79.5277 85.7167 83.4528 84.0596C87.3778 82.4024 90.7705 79.6961 93.2587 76.2376C95.7469 72.7792 97.2343 68.7022 97.5579 64.4539C97.8814 60.2057 97.0285 55.9505 95.0928 52.1551C93.157 48.3597 90.2133 45.1708 86.5845 42.9384C82.9556 40.7059 78.782 39.5162 74.5215 39.4997L74.5037 39.5175Z" fill="#354EA2"/>
<path d="M100.444 85.2617C100.11 85.2602 99.7825 85.1647 99.4997 84.9861C99.2169 84.8075 98.9901 84.553 98.845 84.2516C98.6999 83.9503 98.6424 83.6142 98.6791 83.2818C98.7159 82.9494 98.8453 82.6339 99.0527 82.3715C102.329 78.2825 104.526 73.4363 105.443 68.2774C106.359 63.1185 105.965 57.8121 104.298 52.8448C102.645 47.872 99.769 43.394 95.9348 39.8216C92.1006 36.2493 87.4307 33.6971 82.3536 32.3991C81.9784 32.3053 81.6439 32.0921 81.4004 31.7917C81.1569 31.4912 81.0176 31.1198 81.0035 30.7334C80.9894 30.3469 81.1013 29.9663 81.3223 29.6489C81.5432 29.3316 81.8613 29.0946 82.2287 28.9737L116.965 17.3771C117.187 17.3015 117.423 17.2707 117.657 17.2863C117.892 17.3019 118.121 17.3637 118.331 17.4682C118.542 17.5726 118.73 17.7176 118.884 17.8949C119.038 18.0722 119.156 18.2782 119.231 18.5011C119.411 19.0634 119.7 19.5848 120.082 20.0353C120.464 20.4858 120.931 20.8567 121.456 21.1267C121.981 21.3968 122.555 21.5607 123.143 21.6092C123.732 21.6576 124.324 21.5897 124.886 21.4091C125.109 21.3336 125.344 21.3027 125.579 21.3183C125.813 21.334 126.042 21.3958 126.253 21.5002C126.463 21.6047 126.651 21.7497 126.805 21.9269C126.96 22.1042 127.078 22.3102 127.152 22.5331L140.818 63.4423C140.894 63.6649 140.925 63.9002 140.909 64.1347C140.893 64.3692 140.832 64.5983 140.727 64.8088C140.623 65.0194 140.478 65.2072 140.3 65.3615C140.123 65.5158 139.917 65.6336 139.694 65.7081C138.575 66.0904 137.651 66.8985 137.124 67.9571C136.596 69.0158 136.507 70.2397 136.875 71.3637C136.951 71.5862 136.982 71.8215 136.966 72.056C136.951 72.2905 136.889 72.5196 136.784 72.7302C136.68 72.9407 136.535 73.1286 136.358 73.2829C136.18 73.4372 135.974 73.555 135.751 73.6295L101.015 85.2261C100.828 85.2686 100.635 85.2806 100.444 85.2617ZM107.688 51.7387C109.249 56.3969 109.807 61.3329 109.324 66.2221C108.841 71.1113 107.329 75.8429 104.887 80.1057L133.129 70.6679C132.98 69.1552 133.262 67.6313 133.94 66.2711C134.619 64.911 135.667 63.7698 136.965 62.9785L124.298 25.0844C122.785 25.2328 121.261 24.9516 119.901 24.2731C118.541 23.5946 117.399 22.5463 116.608 21.2486L88.3659 30.6864C92.8928 32.6285 96.9559 35.5093 100.287 39.1384C103.617 42.7675 106.14 47.0622 107.688 51.7387Z" fill="#354EA2"/>
<path d="M32.4916 81.4385C34.7813 80.6737 36.0175 78.1975 35.2527 75.9078C34.4879 73.6181 32.0117 72.3819 29.722 73.1467C27.4323 73.9115 26.1962 76.3877 26.9609 78.6774C27.7257 80.9671 30.2019 82.2033 32.4916 81.4385Z" fill="#354EA2"/>
<path d="M20.1281 68.848L34.8165 63.9382L35.9476 67.3227L21.2592 72.2325L20.1281 68.848ZM26.2725 87.2492L40.9591 82.3411L42.0902 85.7255L27.4036 90.6318L26.2725 87.2492Z" fill="#354EA2"/>
<path d="M120.066 52.1723C122.356 51.4076 123.592 48.9314 122.827 46.6417C122.063 44.352 119.587 43.1158 117.297 43.8806C115.007 44.6454 113.771 47.1216 114.536 49.4113C115.301 51.701 117.777 52.9371 120.066 52.1723Z" fill="#354EA2"/>
<path d="M107.675 39.5854L122.364 34.6792L123.495 38.0618L108.806 42.9699L107.675 39.5854ZM113.836 57.9883L128.524 53.0785L129.655 56.4629L114.967 61.3728L113.836 57.9883ZM31.5249 108.277C31.1508 108.277 30.786 108.161 30.4818 107.943C30.1777 107.725 29.9496 107.418 29.83 107.063C29.4514 105.937 28.642 105.006 27.5788 104.474C26.5156 103.942 25.2851 103.853 24.1566 104.227C23.934 104.302 23.6987 104.333 23.4642 104.317C23.2297 104.302 23.0006 104.24 22.7901 104.136C22.5795 104.031 22.3917 103.886 22.2374 103.709C22.083 103.532 21.9652 103.326 21.8908 103.103L8.22463 62.1935C8.14906 61.9709 8.1182 61.7356 8.13383 61.5011C8.14947 61.2666 8.21128 61.0375 8.31573 60.827C8.42017 60.6164 8.56518 60.4286 8.74244 60.2743C8.91969 60.1199 9.12569 60.0021 9.3486 59.9277C9.90793 59.7422 10.4252 59.4482 10.8706 59.0624C11.3161 58.6767 11.6811 58.2068 11.9446 57.6798C12.2081 57.1527 12.3651 56.5788 12.4064 55.991C12.4477 55.4032 12.3725 54.813 12.1853 54.2542C12.1097 54.0317 12.0789 53.7964 12.0945 53.5619C12.1101 53.3274 12.172 53.0983 12.2764 52.8878C12.3808 52.6772 12.5259 52.4894 12.7031 52.335C12.8804 52.1807 13.0864 52.0629 13.3093 51.9884L48.0455 40.3919C48.4065 40.2878 48.7912 40.3004 49.1446 40.4278C49.4981 40.5552 49.8022 40.791 50.0138 41.1014C50.2254 41.4119 50.3336 41.7812 50.3229 42.1568C50.3123 42.5323 50.1833 42.8949 49.9545 43.1929C46.6855 47.2834 44.4926 52.1273 43.5759 57.2827C42.6592 62.4382 43.0478 67.7411 44.7063 72.7078C46.3649 77.6746 49.2405 82.147 53.071 85.7172C56.9014 89.2875 61.5648 91.8419 66.6358 93.1474C67.0109 93.2412 67.3455 93.4544 67.5889 93.7549C67.8324 94.0553 67.9717 94.4267 67.9858 94.8132C67.9999 95.1997 67.888 95.5803 67.6671 95.8976C67.4461 96.215 67.128 96.452 66.7606 96.5729L32.1136 108.187C31.9237 108.25 31.7247 108.28 31.5249 108.277ZM25.566 100.427C26.9492 100.429 28.3088 100.786 29.5146 101.463C30.7203 102.141 31.732 103.117 32.4526 104.298L60.6591 94.8601C56.1421 92.9139 52.0871 90.0357 48.7594 86.414C45.4316 82.7923 42.9062 78.5087 41.3483 73.8436C39.7905 69.1784 39.2353 64.2369 39.7192 59.3424C40.2031 54.4478 41.7151 49.7106 44.1562 45.4408L15.9497 54.8787C16.1003 56.3916 15.8201 57.9163 15.1414 59.2769C14.4627 60.6374 13.4132 61.7784 12.1139 62.5681L24.781 100.462L25.566 100.427Z" fill="#354EA2"/>
</g>
<defs>
<clipPath id="clip0">
<rect width="157" height="157" fill="white"/>
</clipPath>
</defs>
</svg>
