<?xml version="1.0" encoding="UTF-8"?>
<svg width="78px" height="24px" viewBox="0 0 78 24" version="1.1" xmlns="http://www.w3.org/2000/svg" xmlns:xlink="http://www.w3.org/1999/xlink">
    <!-- Generator: Sketch 63.1 (92452) - https://sketch.com -->
    <title>Brand / Warp / Color</title>
    <desc>Created with Sketch.</desc>
    <g id="a" stroke="none" stroke-width="1" fill="none" fill-rule="evenodd">
        <g id="Brand-/-Warp-/-Color" transform="translate(0.500000, 0.000000)" fill="#7B20F9" fill-rule="nonzero">
            <path d="M21.1385834,0.340425532 L17.7848658,10.587234 L14.4311483,0.340425532 L10.941927,0.340425532 L7.58820941,10.587234 L4.23449186,0.340425532 L0,0.340425532 L5.86053674,16.2382979 L9.14650242,16.2382979 L12.6695996,5.3787234 L16.3620766,16.2382979 L19.6819182,16.2382979 L25.3730752,0.340425532 L21.1385834,0.340425532 Z M39.1944567,0.340425532 L39.1944567,2.45106383 C38.1104267,0.782978723 35.908491,0 33.9098108,0 C29.7430708,0 26.1522217,3.16595745 26.1522217,8.27234043 C26.1522217,13.3446809 29.7769468,16.5787234 33.9436868,16.5787234 C35.874615,16.5787234 38.1104267,15.7957447 39.1944567,14.093617 L39.1944567,16.2382979 L43.1240651,16.2382979 L43.1240651,0.340425532 L39.1944567,0.340425532 Z M34.5534536,12.8680851 C32.1143863,12.8680851 30.1157061,10.893617 30.1157061,8.23829787 C30.1157061,5.58297872 32.1143863,3.67659574 34.5534536,3.67659574 C36.8231412,3.67659574 39.1267048,5.44680851 39.1267048,8.23829787 C39.1267048,11.0297872 36.958645,12.8680851 34.5534536,12.8680851 Z M47.0875495,0.454347223 L47.0875495,16.2382979 L51.0510339,16.2382979 L51.0510339,10.6893617 C51.0510339,9.37736379 51.0510339,7.16997297 51.0510339,4.06718925 L57.3483919,4.06718925 L57.3483919,0.544680851 C56.4069765,0.544680851 52.9866958,0.514569642 47.0875495,0.454347223 Z M69.208535,0 C67.3114826,0 65.041795,0.782978723 63.9577651,2.45106383 L63.9577651,0.340425532 L60.0281566,0.340425532 L60.0281566,24 L63.9577651,24 L63.9577651,14.093617 C65.041795,15.7957447 67.2437308,16.5446809 69.2424109,16.5446809 C73.4091509,16.5446809 77,13.3787234 77,8.27234043 C77,3.2 73.375275,0 69.208535,0 Z M68.5987681,12.8680851 C66.3290805,12.8680851 64.0255169,11.0978723 64.0255169,8.30638298 C64.0255169,5.51489362 66.1935768,3.67659574 68.5987681,3.67659574 C71.0378355,3.67659574 73.0703916,5.65106383 73.0703916,8.30638298 C73.0703916,10.9617021 71.0378355,12.8680851 68.5987681,12.8680851 Z" id="warp"></path>
        </g>
    </g>
</svg>