<?xml version="1.0" encoding="UTF-8"?>
<svg width="120px" height="120px" viewBox="0 0 120 120" version="1.1" xmlns="http://www.w3.org/2000/svg" xmlns:xlink="http://www.w3.org/1999/xlink">
    <!-- Generator: Sketch 63.1 (92452) - https://sketch.com -->
    <title>Group 4</title>
    <desc>Created with Sketch.</desc>
    <g id="Page-1" stroke="none" stroke-width="1" fill="none" fill-rule="evenodd">
        <g id="Artboard" transform="translate(-3903.000000, -2705.000000)">
            <g id="Group-4" transform="translate(3903.000000, 2712.000000)">
                <path d="M13.784851,96.4939572 L25.8465957,96.4939572 L25.8465957,103.731004 C25.8465957,104.49232 25.2294269,105.109489 24.4681106,105.109489 L15.1633361,105.109489 C14.4020198,105.109489 13.784851,104.49232 13.784851,103.731004 L13.784851,96.4939572 L13.784851,96.4939572 Z" id="Rectangle" fill="#41085C"></path>
                <path d="M11.0278808,96.4939572 L23.0896255,96.4939572 L23.0896255,103.731004 C23.0896255,104.49232 22.4724567,105.109489 21.7111404,105.109489 L12.4063659,105.109489 C11.6450496,105.109489 11.0278808,104.49232 11.0278808,103.731004 L11.0278808,96.4939572 L11.0278808,96.4939572 Z" id="Rectangle" fill="#FF8FCC"></path>
                <path d="M82.0198636,96.4939572 L94.0816082,96.4939572 L94.0816082,103.731004 C94.0816082,104.49232 93.4644394,105.109489 92.7031231,105.109489 L83.3983487,105.109489 C82.6370324,105.109489 82.0198636,104.49232 82.0198636,103.731004 L82.0198636,96.4939572 L82.0198636,96.4939572 Z" id="Rectangle" fill="#41085C"></path>
                <path d="M79.2628934,96.4939572 L91.324638,96.4939572 L91.324638,103.731004 C91.324638,104.49232 90.7074692,105.109489 89.9461529,105.109489 L80.6413785,105.109489 C79.8800622,105.109489 79.2628934,104.49232 79.2628934,103.731004 L79.2628934,96.4939572 L79.2628934,96.4939572 Z" id="Rectangle" fill="#FF8FCC"></path>
                <path d="M88.4855673,4.89736288e-14 C102.777828,0.283060004 110.944996,0.544192168 112.987072,0.783396491 C115.294394,1.65182113 118.865086,3.49536901 118.865086,8.96015317 C118.865086,14.4249373 120.018598,74.9337239 118.865086,86.3279607 C118.345882,89.1985546 119.096003,91.4251954 115.880729,93.790738 C111.175204,96.4757918 112.503488,96.1130052 103.955774,96.4757918 C98.2572983,96.7176496 94.0469196,96.7237047 91.324638,96.4939572 L88.4855673,4.89736288e-14 Z" id="Path-23" fill="#41085C"></path>
                <g id="Group">
                    <rect id="Rectangle" fill="#9707D2" x="0" y="0" width="98.9063061" height="96.8385784" rx="10.3386383"></rect>
                    <rect id="Rectangle" stroke="#41085C" stroke-width="1.3784851" fill="#9707D2" x="8.27091061" y="8.96015317" width="82.7091061" height="78.5736508" rx="6.89242551"></rect>
                    <rect id="Rectangle" stroke="#FA87D7" stroke-width="1.3784851" x="14.1294723" y="13.784851" width="70.9919828" height="68.9242551" rx="5.16931913"></rect>
                </g>
                <g id="Group-5" transform="translate(57.379442, 50.314706)">
                    <path d="M20.7300564,0.689242551 C21.4622232,0.689242551 22.0557616,1.28278102 22.0557616,2.01494782 L22.0557616,2.05969197 C22.0557616,2.79185877 21.4622232,3.38539724 20.7300564,3.38539724 L7.42311625,3.38588438 C7.4558985,3.57327377 7.4730037,3.76617794 7.4730037,3.96314467 C7.4730037,5.77127088 6.03155314,7.23704679 4.25343376,7.23704679 C2.47531439,7.23704679 1.03386383,5.77127088 1.03386383,3.96314467 C1.03386383,2.15501846 2.47531439,0.689242551 4.25343376,0.689242551 C4.37129378,0.689242551 4.48767465,0.695682446 4.60225462,0.708235075 C4.67328178,0.695450792 4.74671247,0.689242551 4.82159316,0.689242551 L20.7300564,0.689242551 Z" id="Combined-Shape" fill="#41085C"></path>
                    <path d="M19.6961925,0 C20.4283593,-3.56541464e-16 21.0218978,0.593538465 21.0218978,1.32570527 L21.0218978,1.37044942 C21.0218978,2.10261622 20.4283593,2.69615469 19.6961925,2.69615469 L6.38925242,2.69664183 C6.42203468,2.88403122 6.43913987,3.07693539 6.43913987,3.27390212 C6.43913987,5.08202833 4.99768931,6.54780424 3.21956993,6.54780424 C1.44145056,6.54780424 0,5.08202833 0,3.27390212 C0,1.46577591 1.44145056,0 3.21956993,0 C3.33742995,0 3.45381082,0.00643989476 3.56839079,0.0189925236 C3.63941796,0.00620824066 3.71284864,-8.95374669e-18 3.78772934,0 L19.6961925,0 Z" id="Combined-Shape" fill="#FA87D7"></path>
                </g>
                <g id="Group-2" transform="translate(23.089625, 41.009932)">
                    <circle id="Oval" fill="#41085C" cx="14.4740936" cy="11.0278808" r="11.0278808"></circle>
                    <circle id="Oval" stroke="#FA87D7" stroke-width="1.03386383" fill="#41085C" cx="11.0278808" cy="11.0278808" r="11.0278808"></circle>
                    <path d="M12.0617446,0 L12.0625964,7.29970945 C12.5290205,7.38549537 12.9655603,7.55665577 13.355413,7.796388 L18.2393876,2.37137497 L19.2638017,3.29376154 L14.3794322,8.71915059 C14.7378138,9.18521641 14.9902697,9.7369671 15.1007838,10.3383866 L22.4003829,10.3386383 L22.4003829,11.7171234 L15.1006735,11.7179751 C15.0149617,12.1839958 14.8440231,12.6201839 14.6046168,13.0097802 L20.0290079,17.8947664 L19.1066214,18.9191804 L13.6819547,14.0342553 C13.2158916,14.3928124 12.6640936,14.6454233 12.0625964,14.7560522 L12.0617446,22.0557616 L10.6832595,22.0557616 L10.6830079,14.7561625 C10.1715797,14.6621848 9.69606836,14.4655652 9.27862099,14.1884509 L4.20769197,19.4394625 L3.21609278,18.4818863 L8.28678049,13.2303738 C7.97025393,12.7877076 7.74661134,12.274082 7.64433073,11.7179751 L0.344621276,11.7171234 L0.344621276,10.3386383 L7.6442204,10.3383866 C7.74234735,9.80437833 7.95237971,9.30952844 8.24910546,8.87904894 L3.0872447,3.71735959 L4.06198087,2.74262343 L9.22367022,7.90448419 C9.65414971,7.60775843 10.1489996,7.39772608 10.6830079,7.29959913 L10.6832595,0 L12.0617446,0 Z" id="Combined-Shape" fill="#FA87D7"></path>
                </g>
            </g>
        </g>
    </g>
</svg>