<svg width="240" height="483" viewBox="0 0 240 483" fill="none" xmlns="http://www.w3.org/2000/svg">
<rect width="240" height="483" rx="19" fill="#292936"/>
<rect x="25" y="20" width="190" height="263" rx="9" fill="#414155"/>
<path d="M73.5253 42.464V40.656H64.2293V42.464H67.9093V52H69.8293V42.464H73.5253ZM76.5284 50.576C75.3924 50.576 74.3524 49.712 74.3524 48.096C74.3524 46.48 75.3924 45.648 76.5284 45.648C77.6804 45.648 78.7044 46.48 78.7044 48.096C78.7044 49.728 77.6804 50.576 76.5284 50.576ZM76.5284 43.968C74.2084 43.968 72.4964 45.712 72.4964 48.096C72.4964 50.496 74.2084 52.24 76.5284 52.24C78.8644 52.24 80.5764 50.496 80.5764 48.096C80.5764 45.712 78.8644 43.968 76.5284 43.968ZM85.442 45.68C86.626 45.68 87.154 46.448 87.33 47.136L88.994 46.528C88.674 45.28 87.522 43.968 85.426 43.968C83.186 43.968 81.442 45.696 81.442 48.096C81.442 50.464 83.186 52.24 85.474 52.24C87.522 52.24 88.69 50.912 89.058 49.696L87.426 49.104C87.25 49.696 86.69 50.544 85.474 50.544C84.306 50.544 83.298 49.664 83.298 48.096C83.298 46.528 84.306 45.68 85.442 45.68ZM89.8594 49.888C89.8594 51.12 90.8674 52.24 92.4994 52.24C93.7634 52.24 94.5314 51.6 94.8994 51.008C94.8994 51.632 94.9634 51.952 94.9794 52H96.7074C96.6914 51.92 96.6114 51.456 96.6114 50.752V46.88C96.6114 45.328 95.6994 43.968 93.2994 43.968C91.3794 43.968 90.1634 45.168 90.0194 46.512L91.7154 46.896C91.7954 46.112 92.3394 45.488 93.3154 45.488C94.3394 45.488 94.7874 46.016 94.7874 46.672C94.7874 46.944 94.6594 47.168 94.2114 47.232L92.2114 47.536C90.8834 47.728 89.8594 48.496 89.8594 49.888ZM92.8514 50.784C92.1154 50.784 91.7154 50.304 91.7154 49.776C91.7154 49.136 92.1794 48.816 92.7554 48.72L94.7874 48.416V48.768C94.7874 50.288 93.8914 50.784 92.8514 50.784ZM104.024 55.04V51.12C104.424 51.712 105.272 52.192 106.392 52.192C108.632 52.192 110.056 50.432 110.056 48.096C110.056 45.792 108.76 44.032 106.456 44.032C105.256 44.032 104.36 44.592 103.976 45.264V44.208H102.184V55.04H104.024ZM108.2 48.096C108.2 49.584 107.336 50.544 106.104 50.544C104.888 50.544 104.008 49.584 104.008 48.096C104.008 46.64 104.888 45.68 106.104 45.68C107.352 45.68 108.2 46.64 108.2 48.096ZM111.04 49.888C111.04 51.12 112.048 52.24 113.68 52.24C114.944 52.24 115.712 51.6 116.08 51.008C116.08 51.632 116.144 51.952 116.16 52H117.888C117.872 51.92 117.792 51.456 117.792 50.752V46.88C117.792 45.328 116.88 43.968 114.48 43.968C112.56 43.968 111.344 45.168 111.2 46.512L112.896 46.896C112.976 46.112 113.52 45.488 114.496 45.488C115.52 45.488 115.968 46.016 115.968 46.672C115.968 46.944 115.84 47.168 115.392 47.232L113.392 47.536C112.064 47.728 111.04 48.496 111.04 49.888ZM114.032 50.784C113.296 50.784 112.896 50.304 112.896 49.776C112.896 49.136 113.36 48.816 113.936 48.72L115.968 48.416V48.768C115.968 50.288 115.072 50.784 114.032 50.784ZM124.276 44.16C124.196 44.144 124.004 44.112 123.78 44.112C122.756 44.112 121.892 44.608 121.524 45.456V44.208H119.716V52H121.572V48.288C121.572 46.832 122.228 46 123.668 46C123.86 46 124.068 46.016 124.276 46.048V44.16ZM125.041 49.888C125.041 51.12 126.049 52.24 127.681 52.24C128.945 52.24 129.713 51.6 130.081 51.008C130.081 51.632 130.145 51.952 130.161 52H131.889C131.873 51.92 131.793 51.456 131.793 50.752V46.88C131.793 45.328 130.881 43.968 128.481 43.968C126.561 43.968 125.345 45.168 125.201 46.512L126.897 46.896C126.977 46.112 127.521 45.488 128.497 45.488C129.521 45.488 129.969 46.016 129.969 46.672C129.969 46.944 129.841 47.168 129.393 47.232L127.393 47.536C126.065 47.728 125.041 48.496 125.041 49.888ZM128.033 50.784C127.297 50.784 126.897 50.304 126.897 49.776C126.897 49.136 127.361 48.816 127.937 48.72L129.969 48.416V48.768C129.969 50.288 129.073 50.784 128.033 50.784ZM139.205 55.04V51.12C139.605 51.712 140.453 52.192 141.573 52.192C143.813 52.192 145.237 50.432 145.237 48.096C145.237 45.792 143.941 44.032 141.637 44.032C140.437 44.032 139.541 44.592 139.157 45.264V44.208H137.365V55.04H139.205ZM143.381 48.096C143.381 49.584 142.517 50.544 141.285 50.544C140.069 50.544 139.189 49.584 139.189 48.096C139.189 46.64 140.069 45.68 141.285 45.68C142.533 45.68 143.381 46.64 143.381 48.096ZM146.221 49.888C146.221 51.12 147.229 52.24 148.861 52.24C150.125 52.24 150.893 51.6 151.261 51.008C151.261 51.632 151.325 51.952 151.341 52H153.069C153.053 51.92 152.973 51.456 152.973 50.752V46.88C152.973 45.328 152.061 43.968 149.661 43.968C147.741 43.968 146.525 45.168 146.381 46.512L148.077 46.896C148.157 46.112 148.701 45.488 149.677 45.488C150.701 45.488 151.149 46.016 151.149 46.672C151.149 46.944 151.021 47.168 150.573 47.232L148.573 47.536C147.245 47.728 146.221 48.496 146.221 49.888ZM149.213 50.784C148.477 50.784 148.077 50.304 148.077 49.776C148.077 49.136 148.541 48.816 149.117 48.72L151.149 48.416V48.768C151.149 50.288 150.253 50.784 149.213 50.784ZM154.321 52.432C154.529 54 155.969 55.28 158.033 55.28C160.961 55.28 162.033 53.344 162.033 51.264V44.208H160.241V45.2C159.905 44.56 159.153 44.064 157.937 44.064C155.793 44.064 154.337 45.776 154.337 47.856C154.337 50.048 155.857 51.648 157.937 51.648C159.073 51.648 159.857 51.12 160.193 50.512V51.328C160.193 52.912 159.457 53.664 157.985 53.664C156.913 53.664 156.161 52.944 156.033 51.984L154.321 52.432ZM158.241 50.064C157.025 50.064 156.209 49.216 156.209 47.856C156.209 46.528 157.057 45.664 158.241 45.664C159.393 45.664 160.241 46.528 160.241 47.856C160.241 49.2 159.425 50.064 158.241 50.064ZM163.425 49.888C163.425 51.12 164.433 52.24 166.065 52.24C167.329 52.24 168.097 51.6 168.465 51.008C168.465 51.632 168.529 51.952 168.545 52H170.273C170.257 51.92 170.177 51.456 170.177 50.752V46.88C170.177 45.328 169.265 43.968 166.865 43.968C164.945 43.968 163.729 45.168 163.585 46.512L165.281 46.896C165.361 46.112 165.905 45.488 166.881 45.488C167.905 45.488 168.353 46.016 168.353 46.672C168.353 46.944 168.225 47.168 167.777 47.232L165.777 47.536C164.449 47.728 163.425 48.496 163.425 49.888ZM166.417 50.784C165.681 50.784 165.281 50.304 165.281 49.776C165.281 49.136 165.745 48.816 166.321 48.72L168.353 48.416V48.768C168.353 50.288 167.457 50.784 166.417 50.784ZM176.661 44.16C176.581 44.144 176.389 44.112 176.165 44.112C175.141 44.112 174.277 44.608 173.909 45.456V44.208H172.101V52H173.957V48.288C173.957 46.832 174.613 46 176.053 46C176.245 46 176.453 46.016 176.661 46.048V44.16Z" fill="#FCFCFF"/>
<path d="M95.4389 78.106V76.234C97.7249 75.964 98.9129 74.416 98.9129 72.814C98.9129 71.194 97.7069 69.862 95.7089 69.466L95.4389 69.412V65.722C96.5369 66.028 97.0769 66.964 97.1849 67.648L98.8049 67.054C98.5169 65.884 97.6529 64.408 95.4389 64.12V62.212H94.0349V64.102C92.0189 64.354 90.5969 65.812 90.5969 67.522C90.5969 69.286 91.7489 70.42 93.5849 70.798L94.0349 70.888V74.65C92.6129 74.398 91.9289 73.282 91.8209 72.13L90.1109 72.67C90.3089 74.254 91.5329 75.982 94.0349 76.234V78.106H95.4389ZM97.1489 72.904C97.1489 73.732 96.6089 74.434 95.4389 74.65V71.176C96.6089 71.446 97.1489 72.148 97.1489 72.904ZM92.3789 67.45C92.3789 66.568 92.9909 65.866 94.0349 65.668V69.088C92.8109 68.854 92.3789 68.206 92.3789 67.45ZM107.984 64.336H99.4702V65.956H106.04C106.04 65.956 101.756 69.214 101.234 76H103.052C103.61 69.826 106.904 66.892 107.984 66.028V64.336ZM107.367 73.372H113.091V76H114.801V73.372H116.799V71.734H114.801V64.336H112.371L107.367 71.338V73.372ZM113.091 71.734H108.987L113.091 66.028V71.734ZM117.343 72.832C117.505 74.668 119.179 76.288 121.663 76.288C124.255 76.288 125.947 74.506 125.947 72.31C125.947 69.898 124.273 68.44 121.987 68.44C121.069 68.44 120.133 68.728 119.611 69.304L120.475 65.956H125.461V64.336H119.305L117.793 70.132C118.387 70.348 118.909 70.582 119.521 70.816C120.025 70.294 120.817 69.97 121.645 69.97C122.995 69.97 124.165 70.78 124.165 72.382C124.165 73.822 123.049 74.74 121.663 74.74C120.205 74.74 119.143 73.768 119.035 72.328L117.343 72.832ZM127.298 74.848C127.298 75.55 127.838 76.09 128.54 76.09C129.242 76.09 129.8 75.55 129.8 74.848C129.8 74.146 129.242 73.588 128.54 73.588C127.838 73.588 127.298 74.146 127.298 74.848ZM131.732 75.586C132.308 75.982 133.532 76.27 134.432 76.27C138.356 76.27 140.264 73.714 140.264 69.43C140.264 65.704 138.014 64.066 135.728 64.066C133.442 64.066 131.426 65.686 131.426 68.098C131.426 70.672 133.442 72.04 135.458 72.04C137.042 72.04 138.068 71.32 138.482 70.546C138.41 72.832 137.258 74.686 134.432 74.686C133.676 74.686 132.812 74.434 132.308 74.128L131.732 75.586ZM138.248 68.062C138.248 69.61 137.024 70.528 135.728 70.528C134.396 70.528 133.208 69.646 133.208 68.062C133.208 66.532 134.432 65.614 135.728 65.614C137.006 65.614 138.248 66.55 138.248 68.062ZM145.757 69.304C144.515 69.286 143.597 68.53 143.597 67.396C143.597 66.352 144.443 65.524 145.757 65.524C147.071 65.524 147.917 66.352 147.917 67.396C147.917 68.53 146.999 69.286 145.757 69.304ZM145.757 74.74C144.191 74.74 143.309 73.876 143.309 72.778C143.309 71.662 144.209 70.78 145.757 70.78C147.305 70.78 148.205 71.662 148.205 72.778C148.205 73.876 147.323 74.74 145.757 74.74ZM145.757 76.27C148.439 76.27 149.987 74.794 149.987 72.922C149.987 71.5 149.015 70.438 147.773 70.042C148.853 69.646 149.681 68.566 149.681 67.306C149.681 65.398 147.989 64.066 145.757 64.066C143.525 64.066 141.833 65.398 141.833 67.306C141.833 68.602 142.679 69.646 143.741 70.042C142.499 70.456 141.527 71.5 141.527 72.922C141.527 74.794 143.075 76.27 145.757 76.27Z" fill="#FCFCFF"/>
<rect x="25.5" y="317.5" width="61" height="22" rx="11" fill="#515167" stroke="black"/>
<rect x="92.5" y="317.5" width="61" height="22" rx="11" fill="#515167" stroke="black"/>
<rect x="159.5" y="317.5" width="61" height="22" rx="11" fill="#515167" stroke="black"/>
<rect x="159.5" y="345.5" width="61" height="22" rx="11" fill="#515167" stroke="black"/>
<rect x="92.5" y="345.5" width="61" height="22" rx="11" fill="#515167" stroke="black"/>
<rect x="25.5" y="345.5" width="61" height="22" rx="11" fill="#515167" stroke="black"/>
<rect x="25.5" y="373.5" width="61" height="22" rx="11" fill="#515167" stroke="black"/>
<rect x="92.5" y="373.5" width="61" height="22" rx="11" fill="#515167" stroke="black"/>
<rect x="159.5" y="373.5" width="61" height="22" rx="11" fill="#515167" stroke="black"/>
<rect x="159.5" y="401.5" width="61" height="22" rx="11" fill="#515167" stroke="black"/>
<rect x="92.5" y="401.5" width="61" height="22" rx="11" fill="#515167" stroke="black"/>
<rect x="25.5" y="401.5" width="61" height="22" rx="11" fill="#515167" stroke="black"/>
<rect x="159.5" y="432.5" width="61" height="22" rx="11" fill="#04CA83" stroke="black"/>
<rect x="92.5" y="432.5" width="61" height="22" rx="11" fill="#FFDD4C" stroke="black"/>
<rect x="25.5" y="432.5" width="61" height="22" rx="11" fill="#FF4E28" stroke="black"/>
<path d="M72 83V118C72 122.418 75.5817 126 80 126H157C161.418 126 165 122.418 165 118V83" stroke="#FCFCFF" stroke-width="2"/>
<rect x="89" y="133" width="65" height="94" rx="3" fill="#9191A8" stroke="#FCFCFF" stroke-width="2"/>
<rect x="127" y="142" width="15" height="17" rx="2" fill="#D8D8E4"/>
</svg>
