<svg width="203" height="320" viewBox="0 0 203 320" fill="none" xmlns="http://www.w3.org/2000/svg">
<g clip-path="url(#clip0)">
<g opacity="0.25486" filter="url(#filter0_f)">
<path opacity="0.25486" d="M202 16.6531H1V320H202V16.6531Z" fill="black"/>
</g>
<path d="M193.685 0.43335H9.02794C4.3731 0.43335 0.599609 4.20684 0.599609 8.86168V311.515C0.599609 316.17 4.3731 319.943 9.02794 319.943H193.685C198.34 319.943 202.114 316.17 202.114 311.515V8.86168C202.114 4.20684 198.34 0.43335 193.685 0.43335Z" fill="url(#paint0_radial)"/>
<g style="mix-blend-mode:luminosity">
<path d="M132.167 33.5071H110.713C107.327 33.5071 104.583 36.2514 104.583 39.6368V68.7529C104.583 72.1382 107.327 74.8826 110.713 74.8826H132.167C135.552 74.8826 138.296 72.1382 138.296 68.7529V39.6368C138.296 36.2514 135.552 33.5071 132.167 33.5071Z" fill="#E7E7E7" fill-opacity="0.8"/>
</g>
<path d="M156.065 273.005H171.815V301.117H156.065V273.005Z" fill="#FF5F00"/>
<path d="M157.065 287.061C157.065 281.349 159.765 276.283 163.915 273.005C160.865 270.621 157.015 269.181 152.815 269.181C142.865 269.181 134.815 277.177 134.815 287.061C134.815 296.945 142.865 304.941 152.815 304.941C157.015 304.941 160.865 303.501 163.915 301.117C159.765 297.889 157.065 292.773 157.065 287.061Z" fill="#EB001B"/>
<path d="M193.065 287.061C193.065 296.945 185.015 304.941 175.065 304.941C170.865 304.941 167.015 303.501 163.965 301.117C168.165 297.839 170.815 292.773 170.815 287.061C170.815 281.349 168.115 276.283 163.965 273.005C167.015 270.621 170.865 269.181 175.065 269.181C185.015 269.181 193.065 277.227 193.065 287.061Z" fill="#F79E1B"/>
<path d="M167.281 69.828C166.796 69.6902 166.304 69.1233 166.201 68.5821C166.134 68.2297 166.216 67.9852 166.73 67.0083C168.808 63.0606 169.711 59.4278 169.711 55.0183C169.711 50.7568 168.911 47.4411 166.925 43.4671C166.499 42.614 166.15 41.8218 166.15 41.7073C166.15 41.2844 166.51 40.6714 166.9 40.4309C167.435 40.1011 168.332 40.1628 168.761 40.5585C168.926 40.7106 169.354 41.4016 169.713 42.0935C171.134 44.8342 172.108 47.8411 172.589 50.9709C172.886 52.9078 172.945 56.5787 172.708 58.3518C172.269 61.6228 171.39 64.5414 169.983 67.4006C169.132 69.129 168.598 69.8399 168.151 69.8399C168.061 69.8399 167.915 69.8618 167.827 69.8887C167.737 69.9152 167.492 69.888 167.281 69.828ZM161.497 66.8564C160.753 66.6437 160.217 65.7473 160.432 65.0756C160.484 64.913 160.834 64.164 161.21 63.4111C162.802 60.2235 163.464 56.8064 163.139 53.4514C162.873 50.6947 162.37 48.9561 161.103 46.4123C160.252 44.7056 160.213 44.4411 160.707 43.754C161.177 43.1006 162.35 42.9947 162.967 43.5499C163.394 43.9347 164.722 46.6594 165.235 48.2025C166.932 53.3092 166.673 58.7911 164.498 63.8078C163.384 66.3775 162.602 67.1721 161.497 66.8564ZM155.533 63.8428C155.074 63.6392 154.678 63.1618 154.57 62.6806C154.505 62.3875 154.618 62.0633 155.163 60.9785C157.166 56.994 157.188 53.1561 155.229 49.2642C154.369 47.5549 154.35 47.2147 155.078 46.5406C155.437 46.208 155.589 46.1492 156.093 46.1492C156.939 46.1492 157.378 46.5666 158.134 48.0914C159.296 50.4366 159.772 52.4711 159.768 55.0778C159.764 57.7571 159.319 59.5964 158.077 62.0694C157.366 63.4854 157.014 63.8592 156.302 63.9552C156.085 63.9844 155.739 63.9337 155.533 63.8428ZM149.968 61.0356C149.604 60.8875 149.188 60.4009 149.064 59.9778C148.927 59.5049 149.039 59.1297 149.586 58.2468C150.289 57.1114 150.453 56.5021 150.453 55.018C150.453 53.5342 150.289 52.9247 149.586 51.7892C149.348 51.4042 149.109 50.943 149.054 50.7642C148.828 50.0159 149.463 49.0987 150.316 48.9416C151.039 48.8083 151.535 49.1252 152.2 50.1442C154.124 53.0947 154.124 57.0361 152.199 59.9616C151.52 60.9937 150.762 61.3585 149.968 61.0356Z" fill="white"/>
<path d="M58.33 168.45C56.47 168.45 54.745 168.015 53.155 167.145C51.595 166.245 50.335 164.985 49.375 163.365C48.445 161.715 47.98 159.795 47.98 157.605C47.98 155.445 48.385 153.555 49.195 151.935C50.035 150.315 51.22 149.055 52.75 148.155C54.28 147.255 56.08 146.805 58.15 146.805C59.35 146.805 60.475 147.015 61.525 147.435C62.575 147.855 63.46 148.38 64.18 149.01C64.9 149.61 65.38 150.21 65.62 150.81L65.71 147.345H70.345V168H65.755L65.665 164.355C65.155 165.435 64.225 166.395 62.875 167.235C61.525 168.045 60.01 168.45 58.33 168.45ZM59.14 164.4C60.85 164.4 62.29 163.815 63.46 162.645C64.63 161.445 65.215 159.885 65.215 157.965V157.65C65.215 156.36 64.945 155.205 64.405 154.185C63.865 153.165 63.13 152.37 62.2 151.8C61.27 151.23 60.25 150.945 59.14 150.945C57.22 150.945 55.735 151.575 54.685 152.835C53.635 154.065 53.11 155.67 53.11 157.65C53.11 159.66 53.62 161.295 54.64 162.555C55.69 163.785 57.19 164.4 59.14 164.4ZM77.3305 151.305H73.6855V147.345H77.3305V138.93L82.2355 137.85V147.345H87.0055V151.305H82.2355V168H77.3305V151.305ZM90.0104 134.925H94.8254V168H90.0104V134.925ZM109.431 168.45C107.571 168.45 105.846 168.015 104.256 167.145C102.696 166.245 101.436 164.985 100.476 163.365C99.5464 161.715 99.0814 159.795 99.0814 157.605C99.0814 155.445 99.4864 153.555 100.296 151.935C101.136 150.315 102.321 149.055 103.851 148.155C105.381 147.255 107.181 146.805 109.251 146.805C110.451 146.805 111.576 147.015 112.626 147.435C113.676 147.855 114.561 148.38 115.281 149.01C116.001 149.61 116.481 150.21 116.721 150.81L116.811 147.345H121.446V168H116.856L116.766 164.355C116.256 165.435 115.326 166.395 113.976 167.235C112.626 168.045 111.111 168.45 109.431 168.45ZM110.241 164.4C111.951 164.4 113.391 163.815 114.561 162.645C115.731 161.445 116.316 159.885 116.316 157.965V157.65C116.316 156.36 116.046 155.205 115.506 154.185C114.966 153.165 114.231 152.37 113.301 151.8C112.371 151.23 111.351 150.945 110.241 150.945C108.321 150.945 106.836 151.575 105.786 152.835C104.736 154.065 104.211 155.67 104.211 157.65C104.211 159.66 104.721 161.295 105.741 162.555C106.791 163.785 108.291 164.4 110.241 164.4ZM133.742 168.45C132.302 168.45 130.802 168.27 129.242 167.91C127.712 167.52 126.617 167.07 125.957 166.56L127.577 162.735C129.377 163.995 131.432 164.625 133.742 164.625C136.052 164.625 137.207 163.95 137.207 162.6C137.207 162 136.967 161.535 136.487 161.205C136.007 160.875 135.152 160.485 133.922 160.035L132.212 159.405C130.412 158.685 128.987 157.83 127.937 156.84C126.887 155.82 126.362 154.485 126.362 152.835C126.362 150.945 127.097 149.475 128.567 148.425C130.067 147.345 132.062 146.805 134.552 146.805C135.782 146.805 136.982 146.94 138.152 147.21C139.352 147.48 140.267 147.825 140.897 148.245L139.142 152.115C138.752 151.725 138.122 151.395 137.252 151.125C136.412 150.825 135.467 150.675 134.417 150.675C132.287 150.675 131.222 151.32 131.222 152.61C131.222 153.33 131.507 153.885 132.077 154.275C132.647 154.635 133.577 155.04 134.867 155.49C134.987 155.52 135.452 155.685 136.262 155.985C138.182 156.735 139.607 157.59 140.537 158.55C141.467 159.51 141.932 160.74 141.932 162.24C141.932 164.28 141.152 165.825 139.592 166.875C138.062 167.925 136.112 168.45 133.742 168.45ZM148.959 168.45C148.059 168.45 147.294 168.15 146.664 167.55C146.034 166.92 145.719 166.155 145.719 165.255C145.719 164.325 146.019 163.56 146.619 162.96C147.249 162.33 148.029 162.015 148.959 162.015C149.889 162.015 150.654 162.33 151.254 162.96C151.884 163.56 152.199 164.325 152.199 165.255C152.199 166.155 151.884 166.92 151.254 167.55C150.654 168.15 149.889 168.45 148.959 168.45Z" fill="white"/>
</g>
<defs>
<filter id="filter0_f" x="-48.2944" y="-32.6413" width="299.589" height="401.936" filterUnits="userSpaceOnUse" color-interpolation-filters="sRGB">
<feFlood flood-opacity="0" result="BackgroundImageFix"/>
<feBlend mode="normal" in="SourceGraphic" in2="BackgroundImageFix" result="shape"/>
<feGaussianBlur stdDeviation="24.6472" result="effect1_foregroundBlur"/>
</filter>
<radialGradient id="paint0_radial" cx="0" cy="0" r="1" gradientUnits="userSpaceOnUse" gradientTransform="translate(101.356 0.43335) rotate(90) scale(319.51 201.514)">
<stop stop-color="#88FFE1"/>
<stop offset="1" stop-color="#4AE0BB"/>
</radialGradient>
<clipPath id="clip0">
<rect width="203" height="320" fill="white"/>
</clipPath>
</defs>
</svg>
