<svg width="203" height="320" viewBox="0 0 203 320" fill="none" xmlns="http://www.w3.org/2000/svg">
<rect x="0.588745" width="201.823" height="320" rx="6" fill="#80D6E9"/>
<g style="mix-blend-mode:luminosity">
<path d="M152.677 275.165H168.451V303.32H152.677V275.165Z" fill="#FF5F00"/>
<path d="M153.679 289.243C153.679 283.522 156.383 278.448 160.539 275.165C157.485 272.778 153.629 271.335 149.422 271.335C139.457 271.335 131.395 279.344 131.395 289.243C131.395 299.141 139.457 307.15 149.422 307.15C153.629 307.15 157.485 305.708 160.539 303.32C156.383 300.087 153.679 294.963 153.679 289.243Z" fill="#EB001B"/>
<path d="M189.734 289.243C189.734 299.141 181.671 307.15 171.706 307.15C167.5 307.15 163.644 305.708 160.589 303.32C164.796 300.037 167.45 294.963 167.45 289.243C167.45 283.522 164.746 278.448 160.589 275.165C163.644 272.778 167.5 271.335 171.706 271.335C181.671 271.335 189.734 279.393 189.734 289.243Z" fill="#F79E1B"/>
</g>
<path fill-rule="evenodd" clip-rule="evenodd" d="M147.006 136.073C142.831 114.893 124.23 98.9928 101.884 98.9928C84.1417 98.9928 68.7326 109.061 61.0587 123.795C42.5801 125.759 28.2146 141.414 28.2146 160.384C28.2146 180.704 44.7287 197.218 65.0491 197.218H144.857C161.801 197.218 175.553 183.467 175.553 166.523C175.553 150.316 162.968 137.178 147.006 136.073Z" fill="#E7E7E7" fill-opacity="0.8" style="mix-blend-mode:luminosity"/>
</svg>
