<svg width="158" height="148" viewBox="0 0 158 148" fill="none" xmlns="http://www.w3.org/2000/svg">
<path d="M109.212 103.388C113.829 88.7264 105.686 73.0982 91.0249 68.4811C76.3636 63.8641 60.7355 72.0065 56.1184 86.6678C51.5013 101.33 59.6438 116.958 74.3051 121.575C88.9663 126.192 104.595 118.049 109.212 103.388Z" fill="white"/>
<path d="M126.441 139.792C126.263 139.819 126.083 139.819 125.905 139.792L90.9906 128.695C90.62 128.587 90.2945 128.361 90.0629 128.053C89.8313 127.744 89.7061 127.368 89.7061 126.982C89.7061 126.596 89.8313 126.221 90.0629 125.912C90.2945 125.603 90.62 125.378 90.9906 125.269C96.0444 123.884 100.669 121.252 104.441 117.614C108.213 113.976 111.011 109.449 112.578 104.449C114.156 99.4555 114.456 94.1445 113.449 89.0048C112.442 83.8648 110.161 79.0597 106.816 75.03C106.546 74.7285 106.386 74.3441 106.363 73.9401C106.341 73.536 106.456 73.1362 106.69 72.8063C106.925 72.4764 107.265 72.236 107.654 72.1246C108.043 72.0132 108.458 72.0374 108.832 72.1933L143.764 83.2011C144.195 83.3589 144.549 83.677 144.752 84.089C144.955 84.5011 144.991 84.9754 144.852 85.4134C144.5 86.5466 144.609 87.7735 145.157 88.8263C145.705 89.8791 146.648 90.6725 147.778 91.0335C148.227 91.1765 148.6 91.4915 148.818 91.9095C149.035 92.3275 149.078 92.8135 148.938 93.2635L136.003 134.44C135.86 134.888 135.545 135.262 135.127 135.479C134.709 135.696 134.223 135.739 133.773 135.599C132.64 135.246 131.413 135.356 130.36 135.904C129.307 136.452 128.514 137.394 128.153 138.525C128.036 138.901 127.797 139.228 127.474 139.453C127.151 139.679 126.763 139.792 126.369 139.774L126.441 139.792ZM97.0565 126.875L125.459 135.796C126.224 134.48 127.345 133.407 128.692 132.7C130.04 131.993 131.56 131.681 133.077 131.799L145.084 93.6915C143.775 92.9225 142.709 91.7995 142.009 90.452C141.308 89.1046 141.001 87.5871 141.124 86.0735L112.721 77.153C115.239 81.3853 116.831 86.1039 117.391 90.9965C117.951 95.8905 117.466 100.846 115.968 105.537C114.501 110.228 112.057 114.554 108.797 118.231C105.538 121.909 101.536 124.855 97.0565 126.875Z" fill="#354EA2"/>
<path d="M43.1815 82.5977C43.9066 80.2951 42.6278 77.8407 40.3252 77.1156C38.0227 76.3905 35.5682 77.6693 34.8431 79.9718C34.118 82.2744 35.3968 84.7288 37.6994 85.4539C40.0019 86.1791 42.4564 84.9003 43.1815 82.5977Z" fill="#354EA2"/>
<path d="M33.9974 71.4119L35.0679 68.0078L49.8401 72.659L48.7679 76.063L33.9974 71.4119ZM28.167 89.9022L29.2375 86.5L44.0097 91.1506L42.9375 94.5536L28.167 89.9022Z" fill="#354EA2"/>
<path d="M131.219 110.333C131.944 108.03 130.665 105.576 128.363 104.851C126.06 104.125 123.606 105.404 122.88 107.707C122.155 110.009 123.434 112.464 125.737 113.189C128.039 113.914 130.494 112.635 131.219 110.333Z" fill="#354EA2"/>
<path d="M122.057 99.1318L123.129 95.7278L137.902 100.381L136.829 103.783L122.057 99.1318ZM116.221 117.645L117.292 114.241L132.064 118.894L130.994 122.296L116.221 117.645ZM57.0928 117.956C56.9154 117.983 56.735 117.983 56.5576 117.956L21.6429 106.823C21.1945 106.679 20.8209 106.364 20.6037 105.947C20.3865 105.529 20.3432 105.042 20.4833 104.593C20.8362 103.459 20.7266 102.233 20.1785 101.18C19.6304 100.127 18.6882 99.3338 17.5574 98.9728C17.1089 98.8288 16.7353 98.5138 16.5181 98.0968C16.3009 97.6788 16.2576 97.1918 16.3977 96.7428L29.3502 55.6014C29.4937 55.153 29.8086 54.7794 30.2264 54.5622C30.6441 54.3449 31.1308 54.3017 31.5803 54.4418C32.7136 54.7947 33.9405 54.6851 34.9933 54.137C36.0461 53.5888 36.8394 52.6466 37.2002 51.5159C37.3437 51.0674 37.6586 50.6938 38.0764 50.4766C38.4941 50.2594 38.9808 50.2161 39.4303 50.3562L74.3628 61.364C74.7334 61.4721 75.0589 61.6975 75.2906 62.0063C75.5222 62.3151 75.6474 62.6907 75.6474 63.0768C75.6474 63.4628 75.5222 63.8384 75.2906 64.1472C75.0589 64.456 74.7334 64.6814 74.3628 64.7895C69.3107 66.1766 64.6865 68.8072 60.9124 72.441C57.1384 76.0749 54.3347 80.5963 52.7575 85.5923C51.1803 90.5884 50.8797 95.8998 51.8832 101.042C52.8867 106.184 55.1623 110.993 58.5023 115.03C58.7215 115.293 58.8604 115.613 58.9024 115.953C58.9444 116.293 58.8877 116.638 58.7391 116.946C58.5905 117.255 58.3562 117.514 58.0643 117.693C57.7724 117.872 57.4352 117.963 57.0928 117.956ZM24.2299 103.95L52.6326 112.871C50.1198 108.644 48.5276 103.935 47.9601 99.0508C47.3927 94.1658 47.8628 89.2169 49.3398 84.5268C50.8167 79.8367 53.2671 75.5112 56.5308 71.8333C59.7945 68.1554 63.7979 65.208 68.2791 63.1838L39.8942 54.2634C39.1271 55.5759 38.0054 56.6454 36.6578 57.3492C35.3103 58.0529 33.7916 58.3623 32.2761 58.2419L20.2692 96.3318C21.5784 97.1018 22.6444 98.2248 23.3449 99.5718C24.0454 100.919 24.3521 102.437 24.2299 103.95Z" fill="#354EA2"/>
<path d="M136.521 147.75L8.3335 107.394L28.8327 42.3276L157.002 65.057L136.521 147.75Z" fill="#F4F4FA"/>
<path d="M82.6587 121.88C77.0229 121.868 71.5347 120.077 66.9765 116.763C62.4183 113.448 59.0229 108.779 57.2743 103.422C55.5257 98.0645 55.5131 92.2915 57.2385 86.9261C58.9638 81.5609 62.339 76.8773 66.8827 73.5431C71.4265 70.2089 76.9069 68.3943 82.5426 68.358C88.1783 68.3217 93.6816 70.0656 98.2679 73.341C102.854 76.6164 106.29 81.2561 108.084 86.5987C109.878 91.9415 109.94 97.7135 108.261 103.093C106.558 108.548 103.154 113.314 98.5472 116.694C93.9404 120.074 88.3727 121.892 82.6587 121.88ZM82.6587 71.765C77.7119 71.7744 72.8964 73.3579 68.9095 76.2864C64.9225 79.2148 61.9711 83.3362 60.4825 88.0538C59.0288 92.7155 59.0837 97.7175 60.6391 102.345C62.1946 106.974 65.1713 110.994 69.1451 113.832C73.119 116.67 77.8871 118.181 82.7702 118.15C87.6532 118.12 92.402 116.548 96.3398 113.661C100.278 110.773 103.204 106.716 104.701 102.068C106.198 97.4205 106.19 92.4185 104.677 87.7756C103.165 83.1325 100.226 79.0851 96.2786 76.2103C92.3314 73.3355 87.5775 71.7798 82.6944 71.765H82.6587Z" fill="#D8D8E4"/>
<path d="M126.441 139.792C126.263 139.819 126.083 139.819 125.905 139.792L90.9906 128.695C90.62 128.587 90.2945 128.361 90.0629 128.053C89.8313 127.744 89.7061 127.368 89.7061 126.982C89.7061 126.596 89.8313 126.221 90.0629 125.912C90.2945 125.603 90.62 125.378 90.9906 125.269C96.0444 123.884 100.669 121.252 104.441 117.614C108.213 113.976 111.011 109.449 112.578 104.449C114.156 99.4555 114.456 94.1445 113.449 89.0048C112.442 83.8648 110.161 79.0597 106.816 75.03C106.546 74.7285 106.386 74.3441 106.363 73.9401C106.341 73.536 106.456 73.1362 106.69 72.8063C106.925 72.4764 107.265 72.236 107.654 72.1246C108.043 72.0132 108.458 72.0374 108.832 72.1933L143.764 83.2011C144.195 83.3589 144.549 83.677 144.752 84.089C144.955 84.5011 144.991 84.9754 144.852 85.4134C144.5 86.5466 144.609 87.7735 145.157 88.8263C145.705 89.8791 146.648 90.6725 147.778 91.0335C148.227 91.1765 148.6 91.4915 148.818 91.9095C149.035 92.3275 149.078 92.8135 148.938 93.2635L136.003 134.44C135.86 134.888 135.545 135.262 135.127 135.479C134.709 135.696 134.223 135.739 133.773 135.599C132.64 135.246 131.413 135.356 130.36 135.904C129.307 136.452 128.514 137.394 128.153 138.525C128.036 138.901 127.797 139.228 127.474 139.453C127.151 139.679 126.763 139.792 126.369 139.774L126.441 139.792ZM97.0565 126.875L125.459 135.796C126.224 134.48 127.345 133.407 128.692 132.7C130.04 131.993 131.56 131.681 133.077 131.799L145.084 93.6915C143.775 92.9225 142.709 91.7995 142.009 90.452C141.308 89.1046 141.001 87.5871 141.124 86.0735L112.721 77.153C115.239 81.3853 116.831 86.1039 117.391 90.9965C117.951 95.8905 117.466 100.846 115.968 105.537C114.501 110.228 112.057 114.554 108.797 118.231C105.538 121.909 101.536 124.855 97.0565 126.875Z" fill="#D8D8E4"/>
<path d="M131.219 110.333C131.944 108.03 130.665 105.576 128.363 104.851C126.06 104.125 123.606 105.404 122.88 107.707C122.155 110.009 123.434 112.464 125.737 113.189C128.039 113.914 130.494 112.635 131.219 110.333Z" fill="#D8D8E4"/>
<path d="M122.057 99.1318L123.129 95.7278L137.902 100.381L136.829 103.783L122.057 99.1318ZM116.221 117.645L117.292 114.241L132.064 118.894L130.994 122.296L116.221 117.645ZM57.0928 117.956C56.9154 117.983 56.735 117.983 56.5576 117.956L21.6429 106.823C21.1945 106.679 20.8209 106.364 20.6037 105.947C20.3865 105.529 20.3432 105.042 20.4833 104.593C20.8362 103.459 20.7266 102.233 20.1785 101.18C19.6304 100.127 18.6882 99.3338 17.5574 98.9728C17.1089 98.8288 16.7353 98.5138 16.5181 98.0968C16.3009 97.6788 16.2576 97.1918 16.3977 96.7428L29.3502 55.6014C29.4937 55.153 29.8086 54.7794 30.2264 54.5622C30.6441 54.3449 31.1308 54.3017 31.5803 54.4418C32.7136 54.7947 33.9405 54.6851 34.9933 54.137C36.0461 53.5888 36.8394 52.6466 37.2002 51.5159C37.3437 51.0674 37.6586 50.6938 38.0764 50.4766C38.4941 50.2594 38.9808 50.2161 39.4303 50.3562L74.3628 61.364C74.7334 61.4721 75.0589 61.6975 75.2906 62.0063C75.5222 62.3151 75.6474 62.6907 75.6474 63.0768C75.6474 63.4628 75.5222 63.8384 75.2906 64.1472C75.0589 64.456 74.7334 64.6814 74.3628 64.7895C69.3107 66.1766 64.6865 68.8072 60.9124 72.441C57.1384 76.0749 54.3347 80.5963 52.7575 85.5923C51.1803 90.5884 50.8797 95.8998 51.8832 101.042C52.8867 106.184 55.1623 110.993 58.5023 115.03C58.7215 115.293 58.8604 115.613 58.9024 115.953C58.9444 116.293 58.8877 116.638 58.7391 116.946C58.5905 117.255 58.3562 117.514 58.0643 117.693C57.7724 117.872 57.4352 117.963 57.0928 117.956ZM24.2299 103.95L52.6326 112.871C50.1198 108.644 48.5276 103.935 47.9601 99.0508C47.3927 94.1658 47.8628 89.2169 49.3398 84.5268C50.8167 79.8367 53.2671 75.5112 56.5308 71.8333C59.7945 68.1554 63.7979 65.208 68.2791 63.1838L39.8942 54.2634C39.1271 55.5759 38.0054 56.6454 36.6578 57.3492C35.3103 58.0529 33.7916 58.3623 32.2761 58.2419L20.2692 96.3318C21.5784 97.1018 22.6444 98.2248 23.3449 99.5718C24.0454 100.919 24.3521 102.437 24.2299 103.95Z" fill="#D8D8E4"/>
<path d="M14.396 40.1633L148.768 38.9912L149.364 107.193L14.9919 108.367L14.396 40.1633Z" fill="url(#paint0_linear)"/>
<path d="M81.8739 100.524C74.8041 100.524 68.0215 97.7275 63.0073 92.7435C57.9932 87.7592 55.155 80.9935 55.1126 73.9238C55.0725 70.4034 55.7275 66.9098 57.04 63.643C58.3524 60.3762 60.2966 57.4004 62.761 54.8863C65.2255 52.3721 68.1618 50.3689 71.4017 48.9915C74.6416 47.614 78.1215 46.8894 81.642 46.8591H81.8739C88.9904 46.8331 95.8257 49.6351 100.876 54.6489C105.927 59.6626 108.779 66.4772 108.805 73.5937C108.831 80.7102 106.029 87.5455 101.015 92.5965C96.0013 97.6465 89.1867 100.498 82.0702 100.524H81.8739ZM81.8739 50.4273H81.6777C78.6198 50.4436 75.5953 51.0644 72.7782 52.254C69.9612 53.4436 67.4072 55.1786 65.2632 57.359C63.1192 59.5395 61.4276 62.1224 60.2857 64.9591C59.1437 67.7958 58.574 70.8304 58.6094 73.8881C58.6622 78.4635 60.0672 82.9211 62.6476 86.6998C65.2279 90.4785 68.8684 93.4095 73.1108 95.1245C77.3532 96.8385 82.0079 97.2595 86.4891 96.3345C90.9704 95.4105 95.078 93.1805 98.2949 89.9262C101.512 86.6722 103.694 82.5393 104.568 78.0477C105.441 73.5561 104.966 68.9066 103.203 64.6841C101.44 60.4617 98.4678 56.8551 94.6597 54.3182C90.8517 51.7814 86.3783 50.4276 81.8026 50.4273H81.8739Z" fill="#354EA2"/>
<path d="M100.143 103.148C99.7616 103.145 99.3914 103.02 99.0864 102.791C98.7814 102.562 98.5576 102.242 98.4479 101.877C98.3382 101.512 98.3483 101.121 98.4767 100.763C98.6051 100.404 98.8451 100.095 99.1615 99.8828C103.533 96.9998 107.114 93.0678 109.576 88.446C112.038 83.8243 113.304 78.6596 113.257 73.4232C113.211 68.1867 111.855 63.0451 109.312 58.4674C106.769 53.8898 103.12 50.0217 98.6976 47.2162C98.3757 47.0083 98.1292 46.7022 97.9948 46.3433C97.8603 45.9845 97.845 45.5918 97.951 45.2236C98.0571 44.8553 98.279 44.531 98.5837 44.2986C98.8885 44.0663 99.26 43.9382 99.6432 43.9334L136.271 43.6123C136.743 43.6223 137.194 43.8066 137.538 44.1297C137.874 44.4591 138.066 44.908 138.073 45.3785C138.076 45.9672 138.197 46.5492 138.426 47.0912C138.656 47.6332 138.991 48.1244 139.411 48.5364C140.264 49.3588 141.402 49.8191 142.587 49.8209C142.821 49.8196 143.054 49.8646 143.271 49.9534C143.489 50.0421 143.687 50.173 143.853 50.3383C144.189 50.6677 144.382 51.1166 144.388 51.5872L144.763 94.7088C144.763 95.1818 144.575 95.6358 144.241 95.9698C143.906 96.3048 143.452 96.4928 142.979 96.4928C142.389 96.4978 141.807 96.6188 141.264 96.8488C140.721 97.0798 140.229 97.4148 139.817 97.8358C139.404 98.2568 139.078 98.7548 138.859 99.3028C138.639 99.8498 138.53 100.435 138.537 101.025C138.537 101.498 138.349 101.952 138.014 102.286C137.68 102.621 137.226 102.809 136.753 102.809L100.125 103.13L100.143 103.148ZM104.942 47.4302C108.637 50.6755 111.606 54.6643 113.653 59.1358C115.7 63.6072 116.78 68.4605 116.822 73.3782C116.864 78.2958 115.867 83.1669 113.897 87.6728C111.927 92.1788 109.027 96.2178 105.388 99.5258L135.165 99.2758C135.493 97.7918 136.233 96.4308 137.299 95.3488C138.366 94.2658 139.716 93.5068 141.195 93.1568L140.856 53.2107C139.374 52.8839 138.015 52.1467 136.933 51.0835C135.851 50.0202 135.089 48.6738 134.737 47.1983L104.942 47.4302Z" fill="#354EA2"/>
<path d="M36.1431 78.4582C38.5571 78.4372 40.4969 76.4632 40.4759 74.0492C40.4548 71.6353 38.4808 69.6955 36.0669 69.7165C33.6529 69.7376 31.7131 71.7116 31.7341 74.1255C31.7552 76.5395 33.7292 78.4793 36.1431 78.4582Z" fill="#354EA2"/>
<path d="M28.2441 62.6663L43.73 62.5308L43.7603 66.0989L28.2744 66.2345L28.2441 62.6663ZM28.4136 82.0755L43.8995 81.9399L43.9298 85.5081L28.4439 85.6437L28.4136 82.0755Z" fill="#354EA2"/>
<path d="M127.689 78.7586C130.103 78.7586 132.06 76.8016 132.06 74.3876C132.06 71.9735 130.103 70.0166 127.689 70.0166C125.275 70.0166 123.318 71.9735 123.318 74.3876C123.318 76.8016 125.275 78.7586 127.689 78.7586Z" fill="#354EA2"/>
<path d="M120.542 61.8617L136.028 61.7261L136.06 65.2943L120.574 65.4299L120.542 61.8617Z" fill="#354EA2"/>
<path d="M120.731 81.2689L136.216 81.1351L136.246 84.7033L120.76 84.8371L120.731 81.2689ZM27.4767 103.789C27.0035 103.789 26.5497 103.601 26.2152 103.267C25.8806 102.932 25.6926 102.478 25.6926 102.005C25.6647 100.82 25.1756 99.6934 24.3292 98.8634C23.4829 98.0344 22.3462 97.5674 21.161 97.5634C20.9245 97.5784 20.6877 97.5394 20.4683 97.4494C20.249 97.3604 20.0527 97.2214 19.8943 97.0454C19.5582 96.7164 19.3658 96.2674 19.3591 95.7964L18.9844 52.6753C18.9844 52.2021 19.1724 51.7483 19.507 51.4137C19.8416 51.0791 20.2953 50.8912 20.7685 50.8912C21.3581 50.8865 21.941 50.7655 22.4837 50.535C23.0264 50.3045 23.5182 49.9691 23.9309 49.5481C24.3437 49.127 24.6692 48.6286 24.8889 48.0815C25.1085 47.5343 25.218 46.9491 25.2109 46.3596C25.2109 45.8864 25.3989 45.4326 25.7335 45.098C26.068 44.7635 26.5218 44.5755 26.995 44.5755L63.6224 44.2544C64.0051 44.2535 64.3779 44.3757 64.6858 44.603C64.9937 44.8302 65.2204 45.1504 65.3324 45.5164C65.4444 45.8823 65.4357 46.2746 65.3077 46.6352C65.1797 46.9959 64.9391 47.3058 64.6215 47.5192C60.2499 50.4023 56.6697 54.334 54.2075 58.9557C51.7454 63.5775 50.4797 68.7421 50.5258 73.9786C50.5719 79.2151 51.9284 84.3567 54.4716 88.9343C57.0148 93.5124 60.6636 97.3804 65.0853 100.185C65.4073 100.393 65.6537 100.699 65.7882 101.058C65.9227 101.417 65.938 101.81 65.8319 102.178C65.7258 102.546 65.504 102.87 65.1992 103.103C64.8945 103.335 64.523 103.463 64.1398 103.468L27.5124 103.789H27.4767ZM22.9273 94.1914C24.4088 94.5174 25.7684 95.2554 26.8506 96.3184C27.9328 97.3814 28.6938 98.7284 29.0467 100.203L58.8767 99.9354C55.1816 96.6904 52.2134 92.7014 50.1663 88.2303C48.1191 83.7589 47.0391 78.9055 46.997 73.9879C46.9549 69.0703 47.9516 64.1992 49.9219 59.6933C51.8922 55.1874 54.7917 51.1484 58.4307 47.8404L28.5472 48.108C28.2204 49.5895 27.4832 50.9491 26.4199 52.0313C25.3567 53.1135 24.0103 53.8745 22.5348 54.2274L22.9273 94.1914Z" fill="#354EA2"/>
<path d="M0 42.572L127.456 0L149.065 64.6912L21.6089 107.265L0 42.572Z" fill="url(#paint1_linear)"/>
<path d="M74.5055 80.4894C67.7405 80.4934 61.222 77.9503 56.247 73.3662C51.2719 68.7821 48.2051 62.493 47.6566 55.7503C47.1081 49.0076 49.1182 42.3055 53.2869 36.9776C57.4557 31.6497 63.4774 28.0865 70.1541 26.997C76.8308 25.9075 83.6729 27.3716 89.3191 31.0979C94.9653 34.8242 99.0017 40.5396 100.625 47.1069C102.249 53.6742 101.34 60.612 98.0804 66.5398C94.8207 72.4676 89.4487 76.951 83.0334 79.0978C80.2849 80.0206 77.4047 80.4906 74.5055 80.4894ZM74.5055 30.3743C70.8155 30.3638 67.1763 31.2339 63.8901 32.9123C60.604 34.5907 57.7657 37.0289 55.611 40.0245C53.4564 43.0201 52.0476 46.4865 51.5016 50.1359C50.9557 53.7852 51.2883 57.5122 52.472 61.0072C53.8419 65.0414 56.2966 68.6204 59.5668 71.3514C62.8369 74.0823 66.7962 75.8597 71.01 76.4886C75.2239 77.1175 79.5295 76.5735 83.4546 74.9164C87.3796 73.2592 90.7723 70.5529 93.2605 67.0944C95.7487 63.636 97.2361 59.559 97.5597 55.3107C97.8832 51.0625 97.0303 46.8073 95.0946 43.0119C93.1588 39.2165 90.2151 36.0276 86.5863 33.7952C82.9574 31.5627 78.7838 30.373 74.5233 30.3565L74.5055 30.3743Z" fill="#354EA2"/>
<path d="M100.446 76.1185C100.112 76.117 99.7841 76.0215 99.5013 75.8429C99.2185 75.6643 98.9917 75.4098 98.8466 75.1084C98.7015 74.8071 98.644 74.471 98.6807 74.1386C98.7175 73.8062 98.8469 73.4907 99.0543 73.2283C102.331 69.1393 104.528 64.2931 105.445 59.1342C106.361 53.9753 105.967 48.6689 104.3 43.7016C102.647 38.7288 99.7706 34.2508 95.9364 30.6784C92.1022 27.1061 87.4323 24.5539 82.3552 23.2559C81.98 23.1621 81.6455 22.9489 81.402 22.6485C81.1585 22.348 81.0192 21.9766 81.0051 21.5902C80.991 21.2037 81.1029 20.8231 81.3239 20.5057C81.5448 20.1884 81.8629 19.9514 82.2303 19.8305L116.967 8.2339C117.189 8.1583 117.425 8.1275 117.659 8.1431C117.894 8.1587 118.123 8.2205 118.333 8.325C118.544 8.4294 118.732 8.5744 118.886 8.7517C119.04 8.929 119.158 9.135 119.233 9.3579C119.413 9.9202 119.702 10.4416 120.084 10.8921C120.466 11.3426 120.933 11.7135 121.458 11.9835C121.983 12.2536 122.557 12.4175 123.145 12.466C123.734 12.5144 124.326 12.4465 124.888 12.2659C125.111 12.1904 125.346 12.1595 125.581 12.1751C125.815 12.1908 126.044 12.2526 126.255 12.357C126.465 12.4615 126.653 12.6065 126.807 12.7837C126.962 12.961 127.08 13.167 127.154 13.3899L140.82 54.2991C140.896 54.5217 140.927 54.757 140.911 54.9915C140.895 55.226 140.834 55.4551 140.729 55.6656C140.625 55.8762 140.48 56.064 140.302 56.2183C140.125 56.3726 139.919 56.4904 139.696 56.5649C138.577 56.9472 137.653 57.7553 137.126 58.8139C136.598 59.8726 136.509 61.0965 136.877 62.2205C136.953 62.443 136.984 62.6783 136.968 62.9128C136.953 63.1473 136.891 63.3764 136.786 63.587C136.682 63.7975 136.537 63.9854 136.36 64.1397C136.182 64.294 135.976 64.4118 135.753 64.4863L101.017 76.0829C100.83 76.1254 100.637 76.1374 100.446 76.1185ZM107.69 42.5955C109.251 47.2537 109.809 52.1897 109.326 57.0789C108.843 61.9681 107.331 66.6997 104.889 70.9625L133.131 61.5247C132.982 60.012 133.264 58.4881 133.942 57.1279C134.621 55.7678 135.669 54.6266 136.967 53.8353L124.3 15.9412C122.787 16.0896 121.263 15.8084 119.903 15.1299C118.543 14.4514 117.401 13.4031 116.61 12.1054L88.3675 21.5432C92.8944 23.4853 96.9575 26.3661 100.289 29.9952C103.619 33.6243 106.142 37.919 107.69 42.5955Z" fill="#354EA2"/>
<path d="M32.4933 72.295C34.783 71.5302 36.0192 69.054 35.2544 66.7643C34.4896 64.4746 32.0134 63.2384 29.7237 64.0032C27.434 64.768 26.1979 67.2442 26.9626 69.5339C27.7274 71.8236 30.2036 73.0598 32.4933 72.295Z" fill="#354EA2"/>
<path d="M20.1299 59.7047L34.8183 54.7949L35.9494 58.1794L21.261 63.0892L20.1299 59.7047ZM26.2743 78.1059L40.9609 73.1978L42.092 76.5822L27.4054 81.4885L26.2743 78.1059Z" fill="#354EA2"/>
<path d="M120.068 43.0288C122.358 42.2641 123.594 39.7879 122.829 37.4982C122.065 35.2085 119.589 33.9723 117.299 34.7371C115.009 35.5019 113.773 37.9781 114.538 40.2678C115.303 42.5575 117.779 43.7936 120.068 43.0288Z" fill="#354EA2"/>
<path d="M107.677 30.4418L122.366 25.5356L123.497 28.9182L108.808 33.8263L107.677 30.4418ZM113.838 48.8447L128.526 43.9349L129.657 47.3193L114.969 52.2292L113.838 48.8447ZM31.5269 99.1334C31.1528 99.1334 30.788 99.0174 30.4838 98.7994C30.1797 98.5814 29.9516 98.2744 29.832 97.9194C29.4534 96.7934 28.644 95.8624 27.5808 95.3304C26.5176 94.7984 25.2871 94.7094 24.1586 95.0834C23.936 95.1584 23.7007 95.1894 23.4662 95.1734C23.2317 95.1584 23.0026 95.0964 22.7921 94.9924C22.5815 94.8874 22.3937 94.7424 22.2394 94.5654C22.085 94.3884 21.9672 94.1824 21.8928 93.9594L8.22659 53.0499C8.15102 52.8273 8.12016 52.592 8.13579 52.3575C8.15143 52.123 8.21324 51.8939 8.31769 51.6834C8.42213 51.4728 8.56714 51.285 8.7444 51.1307C8.92165 50.9763 9.12765 50.8585 9.35056 50.7841C9.90989 50.5986 10.4272 50.3046 10.8726 49.9188C11.3181 49.5331 11.6831 49.0632 11.9466 48.5362C12.2101 48.0091 12.3671 47.4352 12.4084 46.8474C12.4497 46.2596 12.3745 45.6694 12.1873 45.1106C12.1117 44.8881 12.0809 44.6528 12.0965 44.4183C12.1121 44.1838 12.174 43.9547 12.2784 43.7442C12.3828 43.5336 12.5279 43.3458 12.7051 43.1914C12.8824 43.0371 13.0884 42.9193 13.3113 42.8448L48.0475 31.2483C48.4085 31.1442 48.7932 31.1568 49.1466 31.2842C49.5001 31.4116 49.8042 31.6474 50.0158 31.9578C50.2274 32.2683 50.3356 32.6376 50.3249 33.0132C50.3143 33.3887 50.1853 33.7513 49.9565 34.0493C46.6875 38.1398 44.4946 42.9837 43.5779 48.1391C42.6612 53.2946 43.0498 58.5975 44.7083 63.5642C46.3669 68.531 49.2425 73.0034 53.073 76.5736C56.9034 80.1439 61.5668 82.6983 66.6378 84.0038C67.0129 84.0976 67.3475 84.3108 67.5909 84.6113C67.8344 84.9117 67.9737 85.2831 67.9878 85.6696C68.0019 86.0561 67.89 86.4367 67.6691 86.754C67.4481 87.0714 67.13 87.3084 66.7626 87.4293L32.1156 99.0434C31.9257 99.1064 31.7267 99.1364 31.5269 99.1334ZM25.568 91.2834C26.9512 91.2854 28.3108 91.6424 29.5166 92.3194C30.7223 92.9974 31.734 93.9734 32.4546 95.1544L60.6611 85.7165C56.1441 83.7703 52.0891 80.8921 48.7614 77.2704C45.4336 73.6487 42.9082 69.3651 41.3503 64.7C39.7925 60.0348 39.2373 55.0933 39.7212 50.1988C40.2051 45.3042 41.7171 40.567 44.1582 36.2972L15.9517 45.7351C16.1023 47.248 15.8221 48.7727 15.1434 50.1333C14.4647 51.4938 13.4152 52.6348 12.1159 53.4245L24.783 91.3184L25.568 91.2834Z" fill="#354EA2"/>
<defs>
<linearGradient id="paint0_linear" x1="145.002" y1="98.8564" x2="30.002" y2="62.3565" gradientUnits="userSpaceOnUse">
<stop stop-color="#DB7AF0"/>
<stop offset="1" stop-color="#38C0F6"/>
</linearGradient>
<linearGradient id="paint1_linear" x1="149" y1="63" x2="1.06438e-05" y2="43" gradientUnits="userSpaceOnUse">
<stop stop-color="#0888FE"/>
<stop offset="1" stop-color="#38F6D4"/>
</linearGradient>
</defs>
</svg>
