<?xml version="1.0" encoding="UTF-8"?>
<svg width="120px" height="120px" viewBox="0 0 120 120" version="1.1" xmlns="http://www.w3.org/2000/svg" xmlns:xlink="http://www.w3.org/1999/xlink">
    <!-- Generator: Sketch 63.1 (92452) - https://sketch.com -->
    <title>Artboard</title>
    <desc>Created with Sketch.</desc>
    <g id="Artboard" stroke="none" stroke-width="1" fill="none" fill-rule="evenodd">
        <g id="Group-3" transform="translate(13.000000, 0.000000)">
            <path d="M13.2318967,93.7599711 C15.2316416,92.251576 16.7109437,90.9141026 17.669803,89.7475511 C19.1080919,87.9977238 19.5493369,82.736726 19.5493369,73.7136298 C19.5493369,64.6905337 20.9049852,50.2619859 20.9049852,47.4284395 C20.9049852,44.5948931 21.3401613,41.4182166 22.2854029,41.4182166 C23.2306446,41.4182166 23.4536623,40.9255278 24.3200658,42.2014323 C25.1864692,43.4773368 25.7276534,47.8283145 25.7276534,49.5401954 C25.7276534,51.2520763 25.9118248,58.6582418 26.2069847,60.0797031 C26.5021446,61.5011643 27.0950078,62.6697799 27.5549161,62.6697799 C28.0148244,62.6697799 28.5246775,61.8210653 28.681333,61.305894 C28.7857701,60.9624465 29.1832749,55.3866726 29.8738475,44.5785725 L31.4451065,18.9938837 C31.7556189,16.9729865 32.4945634,15.9625379 33.6619398,15.9625379 C35.4130044,15.9625379 35.9293457,18.2506311 35.9293457,18.9938837 C35.9293457,19.7371363 35.9293457,46.2746086 35.9293457,46.8515241 C35.9293457,47.4284395 36.2768869,48.3246929 36.7826729,48.3246929 C37.2884589,48.3246929 38.0149913,48.407635 38.3115757,47.4284395 C38.6081602,46.4492441 42.2872357,14.1380597 42.6405145,13.1619187 C42.9937932,12.1857776 43.6009306,11.3479763 44.2631698,11.3479763 C44.9254091,11.3479763 46.1913669,12.4485236 46.1913669,13.6503873 C46.1913669,14.852251 44.4612245,44.7493574 45.1218714,45.4631505 C45.7825182,46.1769437 45.7182251,46.313492 46.1913669,46.2452179 C46.6645086,46.1769437 47.9372341,44.7927502 47.9372341,43.9360392 C47.9372341,43.0793281 51.5531759,15.4589553 51.8575233,15.0982768 C52.1618707,14.7375982 52.6107284,13.6503873 53.3810518,13.6503873 C54.1513751,13.6503873 55.2250507,15.0931015 55.2250507,16.2256958 C55.2250507,17.3582901 52.9190568,44.7607032 52.9190568,45.8061136 C52.9190568,46.8515241 53.6306604,47.4284395 54.4278555,47.4284395 C55.2250507,47.4284395 55.8582286,46.4018702 55.8582286,45.8061136 C55.8582286,45.2103571 58.1626301,27.424048 58.5866066,26.5249393 C59.010583,25.6258306 59.4094791,25.6574795 59.8525644,25.6574795 C60.2956496,25.6574795 60.8593591,26.0032293 61.2839327,26.8177418 C61.5669817,27.3607501 61.5669817,30.696894 61.2839327,36.8261733 L59.8525644,85.0863058 L50.0966455,92.5790506 C47.8932804,95.2510883 46.0873906,97.1262447 44.6789762,98.20452 C43.2705618,99.2827953 37.1132313,102.828851 26.2069847,108.842689 C19.5735063,107.755147 15.6693857,105.710234 14.4946232,102.707948 C13.3198606,99.7056627 12.8989518,96.7230037 13.2318967,93.7599711 Z" id="Path-13" fill="#FA88D6"></path>
            <path d="M78.5715607,119.813411 C67.6831072,115.902609 61.4283919,112.900371 59.8074148,110.806696 C57.3759492,107.666185 54.4008607,106.251881 52.3122374,101.284771 C50.2236141,96.3176617 48.4492172,90.4314179 48.4492172,88.3877284 C48.4492172,86.344039 47.8171187,75.9497892 47.8171187,72.6930356 C47.8171187,69.4362819 49.164981,61.1628961 49.7343858,60.0953325 C50.3037907,59.0277689 50.8353275,58.6208857 51.5737824,58.6208857 C52.3122374,58.6208857 53.7997667,59.0298151 53.5756732,60.0953325 C53.3515798,61.1608499 52.8306065,70.1755613 52.9965368,74.4313094 C53.1624671,78.6870575 54.0688095,78.3353277 54.7386624,78.3353277 C55.190521,78.3353277 55.9793397,78.1712436 55.9793397,75.6433818 C55.9793397,73.9581406 57.0739537,62.8891336 59.2631818,42.436361 C59.6099503,40.6949893 59.9743284,39.4323562 60.356316,38.6484617 C60.9292973,37.47262 61.0980325,36.8185072 62.4876618,36.8185072 C63.8772912,36.8185072 64.7202757,38.1641073 64.8572981,39.0990556 C64.9486465,39.7223545 64.361577,48.7945991 63.0960897,66.3157895 C63.094323,67.6025009 63.5508398,68.0796045 64.4656399,67.7471003 C65.3804401,67.4145961 65.8912931,66.6452665 65.998199,65.4391116 L67.0236271,55.4397917 L68.5146312,34.830077 C68.6583804,33.6050238 68.9571331,32.5694426 69.4108894,31.7233334 C70.0915237,30.4541696 70.7785638,30.0231653 71.6030253,30.0231653 C72.4274867,30.0231653 72.8826873,30.3808348 73.2474775,30.9659312 C73.6122677,31.5510276 73.7086172,31.9831044 73.8683253,32.5380904 C73.9747974,32.908081 73.6090741,43.9471346 72.7711554,65.6552511 C72.9510405,66.2778871 73.2385296,66.5892051 73.6336227,66.5892051 C74.2262623,66.5892051 74.6470532,65.9927869 74.843712,65.4391116 C74.9748179,65.0699948 75.8509211,55.2619963 77.4720218,36.0151161 C77.8025384,33.97111 78.0992262,32.723132 78.3620853,32.2711822 C78.756374,31.5932575 79.4342119,30.9659312 80.2351576,30.9659312 C81.0361033,30.9659312 82.5407014,31.5932575 82.5407014,32.6795383 C82.5407014,33.4037255 81.8979089,44.0550138 80.6123239,64.6334034 C80.6123239,65.5538089 80.8055983,66.0140117 81.1921472,66.0140117 C81.7719704,66.0140117 82.3185992,65.28515 82.3185992,64.9592767 C82.3185992,64.6334034 85.6393363,43.4043235 85.8767984,42.436361 C86.1142604,41.4683984 86.681176,40.1358672 87.2439027,40.1358672 C87.8066294,40.1358672 88.2231218,40.2730396 88.5719165,40.8352333 C88.9207111,41.3974269 89.4672685,42.418935 89.4672685,43.6687676 C89.4672685,44.9186002 87.2439027,79.2590056 87.2439027,79.2590056 C87.2439027,79.2590056 85.9158889,92.6281176 87.2439027,94.7124092 C88.5719165,96.7967007 88.4051529,99.7608418 91.201423,101.284771 C93.065603,102.300725 94.2193815,103.161142 94.6627583,103.866025 L78.5715607,119.813411 Z" id="Path-21" fill="#9707D2"></path>
            <polyline id="Path-22" stroke="#FFC002" stroke-width="2.63157895" stroke-linecap="round" points="0 55.8097897 7.31969814 55.8097897 11.2545843 55.8097897"></polyline>
            <polyline id="Path-22" stroke="#FFC002" stroke-width="2.63157895" stroke-linecap="round" transform="translate(12.654780, 24.536875) rotate(37.000000) translate(-12.654780, -24.536875) " points="7.02748775 24.5368747 14.3471859 24.5368747 18.282072 24.5368747"></polyline>
            <polyline id="Path-22" stroke="#FFC002" stroke-width="2.63157895" stroke-linecap="round" transform="translate(28.357927, 5.131579) rotate(62.000000) translate(-28.357927, -5.131579) " points="22.7306353 5.13157895 30.0503335 5.13157895 33.9852196 5.13157895"></polyline>
            <polyline id="Path-22" stroke="#FFC002" stroke-width="2.63157895" stroke-linecap="round" transform="translate(64.583227, 7.788659) rotate(126.000000) translate(-64.583227, -7.788659) " points="58.6621745 7.78865856 66.3639815 7.78865856 70.5042798 7.78865856"></polyline>
            <polyline id="Path-22" stroke="#FFC002" stroke-width="2.63157895" stroke-linecap="round" transform="translate(74.202720, 22.422727) rotate(163.000000) translate(-74.202720, -22.422727) " points="67.8869301 22.4227266 76.1021909 22.4227266 80.518509 22.4227266"></polyline>
        </g>
    </g>
</svg>