<svg width="97" height="122" viewBox="0 0 97 122" fill="none" xmlns="http://www.w3.org/2000/svg">
<path fill-rule="evenodd" clip-rule="evenodd" d="M15.2319 95.5971C17.2316 94.0887 18.7109 92.7512 19.6698 91.5846C21.1081 89.8348 21.5493 84.5738 21.5493 75.5507C21.5493 66.5276 22.905 52.0991 22.905 49.2655C22.905 46.432 23.3401 43.2553 24.2854 43.2553C25.2306 43.2553 25.4536 42.7626 26.32 44.0385C27.1864 45.3144 27.7276 49.6654 27.7276 51.3773C27.7276 53.0892 27.9118 60.4953 28.207 61.9168C28.5021 63.3382 29.095 64.5069 29.5549 64.5069C30.0148 64.5069 30.5246 63.6581 30.6813 63.143C30.7857 62.7995 31.1832 57.2238 31.8738 46.4157L33.4451 20.831C33.7556 18.8101 34.4945 17.7996 35.6619 17.7996C37.413 17.7996 37.9293 20.0877 37.9293 20.831C37.9293 21.5742 37.9293 48.1117 37.9293 48.6886C37.9293 49.2655 38.2769 50.1618 38.7826 50.1618C39.2884 50.1618 40.015 50.2447 40.3115 49.2655C40.6081 48.2863 44.2872 15.9751 44.6405 14.999C44.9938 14.0229 45.6009 13.1851 46.2631 13.1851C46.9254 13.1851 48.1913 14.2856 48.1913 15.4875C48.1913 16.6893 46.4612 46.5864 47.1218 47.3002C47.7825 48.014 47.7182 48.1506 48.1913 48.0823C48.6645 48.014 49.9372 46.6298 49.9372 45.7731C49.9372 44.9164 53.5531 17.296 53.8575 16.9354C54.1618 16.5747 54.6107 15.4875 55.381 15.4875C56.1513 15.4875 57.225 16.9302 57.225 18.0628C57.225 19.1954 54.919 46.5978 54.919 47.6432C54.919 48.6886 55.6306 49.2655 56.4278 49.2655C57.225 49.2655 57.8582 48.239 57.8582 47.6432C57.8582 47.0474 60.1626 29.2611 60.5866 28.362C61.0106 27.4629 61.4094 27.4946 61.8525 27.4946C62.2956 27.4946 62.8593 27.8403 63.2839 28.6548C63.567 29.1978 63.567 32.534 63.2839 38.6633L61.8525 86.9234L52.0966 94.4161C49.8932 97.0882 48.0874 98.9633 46.6789 100.042C45.2705 101.12 39.1132 104.666 28.207 110.68C21.5735 109.592 17.6694 107.547 16.4946 104.545C15.3198 101.543 14.8989 98.5601 15.2319 95.5971Z" fill="#38C0F6"/>
<path fill-rule="evenodd" clip-rule="evenodd" d="M80.5713 121.651C69.6829 117.74 63.4282 114.738 61.8072 112.644C59.3757 109.503 56.4006 108.089 54.312 103.122C52.2234 98.1549 50.449 92.2686 50.449 90.2249C50.449 88.1812 49.8169 77.787 49.8169 74.5302C49.8169 71.2735 51.1648 63.0001 51.7342 61.9325C52.3036 60.865 52.8351 60.4581 53.5736 60.4581C54.312 60.4581 55.7995 60.867 55.5754 61.9325C55.3514 62.998 54.8304 72.0128 54.9963 76.2685C55.1622 80.5242 56.0686 80.1725 56.7384 80.1725C57.1903 80.1725 57.9791 80.0084 57.9791 77.4806C57.9791 75.7953 59.0737 64.7263 61.263 44.2735C61.6097 42.5322 61.9741 41.2695 62.3561 40.4856C62.9291 39.3098 63.0978 38.6557 64.4874 38.6557C65.8771 38.6557 66.7201 40.0013 66.8571 40.9362C66.9484 41.5595 66.3614 50.6318 65.0959 68.153C65.0941 69.4397 65.5506 69.9168 66.4654 69.5843C67.3802 69.2518 67.8911 68.4825 67.998 67.2763L69.0234 57.277L70.5144 36.6673C70.6582 35.4422 70.9569 34.4066 71.4107 33.5605C72.0913 32.2914 72.7783 31.8604 73.6028 31.8604C74.4273 31.8604 74.8825 32.218 75.2472 32.8031C75.612 33.3882 75.7084 33.8203 75.8681 34.3753C75.9746 34.7453 75.6088 45.7843 74.7709 67.4924C74.9508 68.1151 75.2383 68.4264 75.6334 68.4264C76.226 68.4264 76.6468 67.83 76.8435 67.2763C76.9746 66.9072 77.8507 57.0992 79.4718 37.8523C79.8023 35.8083 80.099 34.5603 80.3619 34.1084C80.7561 33.4304 81.434 32.8031 82.2349 32.8031C83.0359 32.8031 84.5405 33.4304 84.5405 34.5167C84.5405 35.2409 83.8977 45.8922 82.6121 66.4706C82.6121 67.391 82.8054 67.8512 83.1919 67.8512C83.7717 67.8512 84.3184 67.1223 84.3184 66.7965C84.3184 66.4706 87.6391 45.2415 87.8766 44.2735C88.114 43.3056 88.681 41.9731 89.2437 41.9731C89.8064 41.9731 90.2229 42.1102 90.5717 42.6724C90.9205 43.2346 91.467 44.2561 91.467 45.506C91.467 46.7558 89.2437 81.0962 89.2437 81.0962C89.2437 81.0962 87.9157 94.4653 89.2437 96.5496C90.5717 98.6339 90.4049 101.598 93.2012 103.122C95.0654 104.138 96.2192 104.998 96.6625 105.703L80.5713 121.651Z" fill="#DA7BF0"/>
<path d="M2 57.647H9.3197H13.2546" stroke="#FBBC40" stroke-width="2.63158" stroke-linecap="round"/>
<path d="M10.1606 22.9873L16.0064 27.3924L19.149 29.7605" stroke="#FBBC40" stroke-width="2.63158" stroke-linecap="round"/>
<path d="M27.7163 2L31.1527 8.46291L33 11.9372" stroke="#FBBC40" stroke-width="2.63158" stroke-linecap="round"/>
<path d="M70.0635 4.83545L65.5365 11.0663L63.1029 14.4159" stroke="#FBBC40" stroke-width="2.63158" stroke-linecap="round"/>
<path d="M82.2427 22.4131L74.3864 24.815L70.163 26.1062" stroke="#FBBC40" stroke-width="2.63158" stroke-linecap="round"/>
</svg>
