<svg width="240" height="483" viewBox="0 0 240 483" fill="none" xmlns="http://www.w3.org/2000/svg">
<path d="M221 0H19C8.50659 0 0 8.50659 0 19V464C0 474.493 8.50659 483 19 483H221C231.493 483 240 474.493 240 464V19C240 8.50659 231.493 0 221 0Z" fill="#292936"/>
<path d="M206 20H34C29.0294 20 25 24.0294 25 29V274C25 278.971 29.0294 283 34 283H206C210.971 283 215 278.971 215 274V29C215 24.0294 210.971 20 206 20Z" fill="#414155"/>
<path d="M75.5 317.5H36.5C30.4249 317.5 25.5 322.425 25.5 328.5C25.5 334.575 30.4249 339.5 36.5 339.5H75.5C81.5751 339.5 86.5 334.575 86.5 328.5C86.5 322.425 81.5751 317.5 75.5 317.5Z" fill="#515167" stroke="black"/>
<path d="M142.5 317.5H103.5C97.4249 317.5 92.5 322.425 92.5 328.5C92.5 334.575 97.4249 339.5 103.5 339.5H142.5C148.575 339.5 153.5 334.575 153.5 328.5C153.5 322.425 148.575 317.5 142.5 317.5Z" fill="#515167" stroke="black"/>
<path d="M209.5 317.5H170.5C164.425 317.5 159.5 322.425 159.5 328.5C159.5 334.575 164.425 339.5 170.5 339.5H209.5C215.575 339.5 220.5 334.575 220.5 328.5C220.5 322.425 215.575 317.5 209.5 317.5Z" fill="#515167" stroke="black"/>
<path d="M209.5 345.5H170.5C164.425 345.5 159.5 350.425 159.5 356.5C159.5 362.575 164.425 367.5 170.5 367.5H209.5C215.575 367.5 220.5 362.575 220.5 356.5C220.5 350.425 215.575 345.5 209.5 345.5Z" fill="#515167" stroke="black"/>
<path d="M142.5 345.5H103.5C97.4249 345.5 92.5 350.425 92.5 356.5C92.5 362.575 97.4249 367.5 103.5 367.5H142.5C148.575 367.5 153.5 362.575 153.5 356.5C153.5 350.425 148.575 345.5 142.5 345.5Z" fill="#515167" stroke="black"/>
<path d="M75.5 345.5H36.5C30.4249 345.5 25.5 350.425 25.5 356.5C25.5 362.575 30.4249 367.5 36.5 367.5H75.5C81.5751 367.5 86.5 362.575 86.5 356.5C86.5 350.425 81.5751 345.5 75.5 345.5Z" fill="#515167" stroke="black"/>
<path d="M75.5 373.5H36.5C30.4249 373.5 25.5 378.425 25.5 384.5C25.5 390.575 30.4249 395.5 36.5 395.5H75.5C81.5751 395.5 86.5 390.575 86.5 384.5C86.5 378.425 81.5751 373.5 75.5 373.5Z" fill="#515167" stroke="black"/>
<path d="M142.5 373.5H103.5C97.4249 373.5 92.5 378.425 92.5 384.5C92.5 390.575 97.4249 395.5 103.5 395.5H142.5C148.575 395.5 153.5 390.575 153.5 384.5C153.5 378.425 148.575 373.5 142.5 373.5Z" fill="#515167" stroke="black"/>
<path d="M209.5 373.5H170.5C164.425 373.5 159.5 378.425 159.5 384.5C159.5 390.575 164.425 395.5 170.5 395.5H209.5C215.575 395.5 220.5 390.575 220.5 384.5C220.5 378.425 215.575 373.5 209.5 373.5Z" fill="#515167" stroke="black"/>
<path d="M209.5 401.5H170.5C164.425 401.5 159.5 406.425 159.5 412.5C159.5 418.575 164.425 423.5 170.5 423.5H209.5C215.575 423.5 220.5 418.575 220.5 412.5C220.5 406.425 215.575 401.5 209.5 401.5Z" fill="#515167" stroke="black"/>
<path d="M142.5 401.5H103.5C97.4249 401.5 92.5 406.425 92.5 412.5C92.5 418.575 97.4249 423.5 103.5 423.5H142.5C148.575 423.5 153.5 418.575 153.5 412.5C153.5 406.425 148.575 401.5 142.5 401.5Z" fill="#515167" stroke="black"/>
<path d="M75.5 401.5H36.5C30.4249 401.5 25.5 406.425 25.5 412.5C25.5 418.575 30.4249 423.5 36.5 423.5H75.5C81.5751 423.5 86.5 418.575 86.5 412.5C86.5 406.425 81.5751 401.5 75.5 401.5Z" fill="#515167" stroke="black"/>
<path d="M209.5 432.5H170.5C164.425 432.5 159.5 437.425 159.5 443.5C159.5 449.575 164.425 454.5 170.5 454.5H209.5C215.575 454.5 220.5 449.575 220.5 443.5C220.5 437.425 215.575 432.5 209.5 432.5Z" fill="#04CA83" stroke="black"/>
<path d="M142.5 432.5H103.5C97.4249 432.5 92.5 437.425 92.5 443.5C92.5 449.575 97.4249 454.5 103.5 454.5H142.5C148.575 454.5 153.5 449.575 153.5 443.5C153.5 437.425 148.575 432.5 142.5 432.5Z" fill="#FFDD4C" stroke="black"/>
<path d="M75.5 432.5H36.5C30.4249 432.5 25.5 437.425 25.5 443.5C25.5 449.575 30.4249 454.5 36.5 454.5H75.5C81.5751 454.5 86.5 449.575 86.5 443.5C86.5 437.425 81.5751 432.5 75.5 432.5Z" fill="#FF4E28" stroke="black"/>
<path d="M72 83V118C72 122.418 75.5817 126 80 126H157C161.418 126 165 122.418 165 118V83" stroke="#FCFCFF" stroke-width="2"/>
<path d="M151 133H92C90.3431 133 89 134.343 89 136V224C89 225.657 90.3431 227 92 227H151C152.657 227 154 225.657 154 224V136C154 134.343 152.657 133 151 133Z" fill="#9191A8" stroke="#FCFCFF" stroke-width="2"/>
<path d="M140 142H129C127.895 142 127 142.895 127 144V157C127 158.105 127.895 159 129 159H140C141.105 159 142 158.105 142 157V144C142 142.895 141.105 142 140 142Z" fill="#D8D8E4"/>
<path d="M96.11 180.15C95.49 180.15 94.915 180.005 94.385 179.715C93.865 179.415 93.445 178.995 93.125 178.455C92.815 177.905 92.66 177.265 92.66 176.535C92.66 175.815 92.795 175.185 93.065 174.645C93.345 174.105 93.74 173.685 94.25 173.385C94.76 173.085 95.36 172.935 96.05 172.935C96.45 172.935 96.825 173.005 97.175 173.145C97.525 173.285 97.82 173.46 98.06 173.67C98.3 173.87 98.46 174.07 98.54 174.27L98.57 173.115H100.115V180H98.585L98.555 178.785C98.385 179.145 98.075 179.465 97.625 179.745C97.175 180.015 96.67 180.15 96.11 180.15ZM96.38 178.8C96.95 178.8 97.43 178.605 97.82 178.215C98.21 177.815 98.405 177.295 98.405 176.655V176.55C98.405 176.12 98.315 175.735 98.135 175.395C97.955 175.055 97.71 174.79 97.4 174.6C97.09 174.41 96.75 174.315 96.38 174.315C95.74 174.315 95.245 174.525 94.895 174.945C94.545 175.355 94.37 175.89 94.37 176.55C94.37 177.22 94.54 177.765 94.88 178.185C95.23 178.595 95.73 178.8 96.38 178.8ZM102.444 174.435H101.229V173.115H102.444V170.31L104.079 169.95V173.115H105.669V174.435H104.079V180H102.444V174.435ZM106.67 168.975H108.275V180H106.67V168.975ZM113.144 180.15C112.524 180.15 111.949 180.005 111.419 179.715C110.899 179.415 110.479 178.995 110.159 178.455C109.849 177.905 109.694 177.265 109.694 176.535C109.694 175.815 109.829 175.185 110.099 174.645C110.379 174.105 110.774 173.685 111.284 173.385C111.794 173.085 112.394 172.935 113.084 172.935C113.484 172.935 113.859 173.005 114.209 173.145C114.559 173.285 114.854 173.46 115.094 173.67C115.334 173.87 115.494 174.07 115.574 174.27L115.604 173.115H117.149V180H115.619L115.589 178.785C115.419 179.145 115.109 179.465 114.659 179.745C114.209 180.015 113.704 180.15 113.144 180.15ZM113.414 178.8C113.984 178.8 114.464 178.605 114.854 178.215C115.244 177.815 115.439 177.295 115.439 176.655V176.55C115.439 176.12 115.349 175.735 115.169 175.395C114.989 175.055 114.744 174.79 114.434 174.6C114.124 174.41 113.784 174.315 113.414 174.315C112.774 174.315 112.279 174.525 111.929 174.945C111.579 175.355 111.404 175.89 111.404 176.55C111.404 177.22 111.574 177.765 111.914 178.185C112.264 178.595 112.764 178.8 113.414 178.8ZM121.247 180.15C120.767 180.15 120.267 180.09 119.747 179.97C119.237 179.84 118.872 179.69 118.652 179.52L119.192 178.245C119.792 178.665 120.477 178.875 121.247 178.875C122.017 178.875 122.402 178.65 122.402 178.2C122.402 178 122.322 177.845 122.162 177.735C122.002 177.625 121.717 177.495 121.307 177.345L120.737 177.135C120.137 176.895 119.662 176.61 119.312 176.28C118.962 175.94 118.787 175.495 118.787 174.945C118.787 174.315 119.032 173.825 119.522 173.475C120.022 173.115 120.687 172.935 121.517 172.935C121.927 172.935 122.327 172.98 122.717 173.07C123.117 173.16 123.422 173.275 123.632 173.415L123.047 174.705C122.917 174.575 122.707 174.465 122.417 174.375C122.137 174.275 121.822 174.225 121.472 174.225C120.762 174.225 120.407 174.44 120.407 174.87C120.407 175.11 120.502 175.295 120.692 175.425C120.882 175.545 121.192 175.68 121.622 175.83C121.662 175.84 121.817 175.895 122.087 175.995C122.727 176.245 123.202 176.53 123.512 176.85C123.822 177.17 123.977 177.58 123.977 178.08C123.977 178.76 123.717 179.275 123.197 179.625C122.687 179.975 122.037 180.15 121.247 180.15Z" fill="#F8F8FF" fill-opacity="0.4"/>
<path d="M79.834 54V43.2949H76.0107V41.1152H86.25V43.2949H82.4355V54H79.834ZM88.4297 47.5137L86.1885 47.1094C86.4404 46.207 86.874 45.5391 87.4893 45.1055C88.1045 44.6719 89.0186 44.4551 90.2314 44.4551C91.333 44.4551 92.1533 44.5869 92.6924 44.8506C93.2314 45.1084 93.6094 45.4395 93.8262 45.8438C94.0488 46.2422 94.1602 46.9775 94.1602 48.0498L94.1338 50.9326C94.1338 51.7529 94.1719 52.3594 94.248 52.752C94.3301 53.1387 94.4795 53.5547 94.6963 54H92.2529C92.1885 53.8359 92.1094 53.5928 92.0156 53.2705C91.9746 53.124 91.9453 53.0273 91.9277 52.9805C91.5059 53.3906 91.0547 53.6982 90.5742 53.9033C90.0938 54.1084 89.5811 54.2109 89.0361 54.2109C88.0752 54.2109 87.3164 53.9502 86.7598 53.4287C86.209 52.9072 85.9336 52.248 85.9336 51.4512C85.9336 50.9238 86.0596 50.4551 86.3115 50.0449C86.5635 49.6289 86.915 49.3125 87.3662 49.0957C87.8232 48.873 88.4795 48.6797 89.335 48.5156C90.4893 48.2988 91.2891 48.0967 91.7344 47.9092V47.6631C91.7344 47.1885 91.6172 46.8516 91.3828 46.6523C91.1484 46.4473 90.7061 46.3447 90.0557 46.3447C89.6162 46.3447 89.2734 46.4326 89.0273 46.6084C88.7812 46.7783 88.582 47.0801 88.4297 47.5137ZM91.7344 49.5176C91.418 49.623 90.917 49.749 90.2314 49.8955C89.5459 50.042 89.0977 50.1855 88.8867 50.3262C88.5645 50.5547 88.4033 50.8447 88.4033 51.1963C88.4033 51.542 88.5322 51.8408 88.79 52.0928C89.0479 52.3447 89.376 52.4707 89.7744 52.4707C90.2197 52.4707 90.6445 52.3242 91.0488 52.0312C91.3477 51.8086 91.5439 51.5361 91.6377 51.2139C91.7021 51.0029 91.7344 50.6016 91.7344 50.0098V49.5176ZM96.5332 44.666H98.8359V46.0371C99.1348 45.5684 99.5391 45.1875 100.049 44.8945C100.559 44.6016 101.124 44.4551 101.745 44.4551C102.829 44.4551 103.749 44.8799 104.505 45.7295C105.261 46.5791 105.639 47.7627 105.639 49.2803C105.639 50.8389 105.258 52.0518 104.496 52.9189C103.734 53.7803 102.812 54.2109 101.728 54.2109C101.212 54.2109 100.743 54.1084 100.321 53.9033C99.9053 53.6982 99.4658 53.3467 99.0029 52.8486V57.5508H96.5332V44.666ZM98.9766 49.1748C98.9766 50.2236 99.1846 51 99.6006 51.5039C100.017 52.002 100.523 52.251 101.121 52.251C101.695 52.251 102.173 52.0225 102.554 51.5654C102.935 51.1025 103.125 50.3467 103.125 49.2979C103.125 48.3193 102.929 47.5928 102.536 47.1182C102.144 46.6436 101.657 46.4062 101.077 46.4062C100.474 46.4062 99.9727 46.6406 99.5742 47.1094C99.1758 47.5723 98.9766 48.2607 98.9766 49.1748ZM116.897 44.666V46.6348H115.21V50.3965C115.21 51.1582 115.225 51.6035 115.254 51.7324C115.289 51.8555 115.362 51.958 115.474 52.04C115.591 52.1221 115.731 52.1631 115.896 52.1631C116.124 52.1631 116.455 52.084 116.889 51.9258L117.1 53.8418C116.525 54.0879 115.875 54.2109 115.148 54.2109C114.703 54.2109 114.302 54.1377 113.944 53.9912C113.587 53.8389 113.323 53.6455 113.153 53.4111C112.989 53.1709 112.875 52.8486 112.811 52.4443C112.758 52.1572 112.731 51.5771 112.731 50.7041V46.6348H111.598V44.666H112.731V42.8115L115.21 41.3701V44.666H116.897ZM118.04 49.2012C118.04 48.3809 118.242 47.5869 118.646 46.8193C119.051 46.0518 119.622 45.4658 120.36 45.0615C121.104 44.6572 121.934 44.4551 122.848 44.4551C124.26 44.4551 125.417 44.915 126.319 45.835C127.222 46.749 127.673 47.9062 127.673 49.3066C127.673 50.7188 127.216 51.8906 126.302 52.8223C125.394 53.748 124.248 54.2109 122.865 54.2109C122.01 54.2109 121.192 54.0176 120.413 53.6309C119.64 53.2441 119.051 52.6787 118.646 51.9346C118.242 51.1846 118.04 50.2734 118.04 49.2012ZM120.571 49.333C120.571 50.2588 120.791 50.9678 121.23 51.46C121.67 51.9521 122.212 52.1982 122.856 52.1982C123.501 52.1982 124.04 51.9521 124.474 51.46C124.913 50.9678 125.133 50.2529 125.133 49.3154C125.133 48.4014 124.913 47.6982 124.474 47.2061C124.04 46.7139 123.501 46.4678 122.856 46.4678C122.212 46.4678 121.67 46.7139 121.23 47.2061C120.791 47.6982 120.571 48.4072 120.571 49.333ZM134.555 44.666H136.857V46.0371C137.156 45.5684 137.561 45.1875 138.07 44.8945C138.58 44.6016 139.146 44.4551 139.767 44.4551C140.851 44.4551 141.771 44.8799 142.526 45.7295C143.282 46.5791 143.66 47.7627 143.66 49.2803C143.66 50.8389 143.279 52.0518 142.518 52.9189C141.756 53.7803 140.833 54.2109 139.749 54.2109C139.233 54.2109 138.765 54.1084 138.343 53.9033C137.927 53.6982 137.487 53.3467 137.024 52.8486V57.5508H134.555V44.666ZM136.998 49.1748C136.998 50.2236 137.206 51 137.622 51.5039C138.038 52.002 138.545 52.251 139.143 52.251C139.717 52.251 140.194 52.0225 140.575 51.5654C140.956 51.1025 141.146 50.3467 141.146 49.2979C141.146 48.3193 140.95 47.5928 140.558 47.1182C140.165 46.6436 139.679 46.4062 139.099 46.4062C138.495 46.4062 137.994 46.6406 137.596 47.1094C137.197 47.5723 136.998 48.2607 136.998 49.1748ZM147.475 47.5137L145.233 47.1094C145.485 46.207 145.919 45.5391 146.534 45.1055C147.149 44.6719 148.063 44.4551 149.276 44.4551C150.378 44.4551 151.198 44.5869 151.737 44.8506C152.276 45.1084 152.654 45.4395 152.871 45.8438C153.094 46.2422 153.205 46.9775 153.205 48.0498L153.179 50.9326C153.179 51.7529 153.217 52.3594 153.293 52.752C153.375 53.1387 153.524 53.5547 153.741 54H151.298C151.233 53.8359 151.154 53.5928 151.061 53.2705C151.02 53.124 150.99 53.0273 150.973 52.9805C150.551 53.3906 150.1 53.6982 149.619 53.9033C149.139 54.1084 148.626 54.2109 148.081 54.2109C147.12 54.2109 146.361 53.9502 145.805 53.4287C145.254 52.9072 144.979 52.248 144.979 51.4512C144.979 50.9238 145.104 50.4551 145.356 50.0449C145.608 49.6289 145.96 49.3125 146.411 49.0957C146.868 48.873 147.524 48.6797 148.38 48.5156C149.534 48.2988 150.334 48.0967 150.779 47.9092V47.6631C150.779 47.1885 150.662 46.8516 150.428 46.6523C150.193 46.4473 149.751 46.3447 149.101 46.3447C148.661 46.3447 148.318 46.4326 148.072 46.6084C147.826 46.7783 147.627 47.0801 147.475 47.5137ZM150.779 49.5176C150.463 49.623 149.962 49.749 149.276 49.8955C148.591 50.042 148.143 50.1855 147.932 50.3262C147.609 50.5547 147.448 50.8447 147.448 51.1963C147.448 51.542 147.577 51.8408 147.835 52.0928C148.093 52.3447 148.421 52.4707 148.819 52.4707C149.265 52.4707 149.689 52.3242 150.094 52.0312C150.393 51.8086 150.589 51.5361 150.683 51.2139C150.747 51.0029 150.779 50.6016 150.779 50.0098V49.5176ZM154.479 44.666H157.107L159.34 51.293L161.52 44.666H164.077L160.781 53.6484L160.192 55.2744C159.976 55.8193 159.768 56.2354 159.568 56.5225C159.375 56.8096 159.149 57.041 158.892 57.2168C158.64 57.3984 158.326 57.5391 157.951 57.6387C157.582 57.7383 157.163 57.7881 156.694 57.7881C156.22 57.7881 155.754 57.7383 155.297 57.6387L155.077 55.7051C155.464 55.7812 155.812 55.8193 156.123 55.8193C156.697 55.8193 157.122 55.6494 157.397 55.3096C157.673 54.9756 157.884 54.5479 158.03 54.0264L154.479 44.666Z" fill="white"/>
<path d="M101.76 74.9297H100.823V74.041C99.8434 73.9772 99.0664 73.6947 98.4922 73.1934C97.9225 72.6921 97.6354 72.0449 97.6309 71.252H99.0801C99.1165 71.6576 99.2874 71.9948 99.5928 72.2637C99.9027 72.528 100.313 72.6898 100.823 72.749V69.6318L100.215 69.4746C99.4492 69.2786 98.8636 68.9574 98.458 68.5107C98.057 68.0596 97.8564 67.5013 97.8564 66.8359C97.8564 66.0475 98.1185 65.4072 98.6426 64.915C99.1712 64.4183 99.8981 64.1266 100.823 64.04V63.0967H101.76V64.04C102.644 64.1175 103.355 64.4069 103.893 64.9082C104.43 65.4095 104.711 66.0407 104.733 66.8018H103.305C103.291 66.4235 103.143 66.1022 102.86 65.8379C102.578 65.569 102.211 65.4072 101.76 65.3525V68.2988L102.396 68.4424C103.252 68.652 103.886 68.9779 104.296 69.4199C104.711 69.862 104.918 70.4362 104.918 71.1426C104.918 71.9766 104.642 72.6465 104.091 73.1523C103.539 73.6536 102.762 73.9476 101.76 74.0342V74.9297ZM103.462 71.2998C103.462 70.9079 103.323 70.5911 103.045 70.3496C102.771 70.1081 102.343 69.9281 101.76 69.8096V72.7627C102.302 72.7308 102.721 72.5872 103.018 72.332C103.314 72.0768 103.462 71.7327 103.462 71.2998ZM99.3193 66.7129C99.3193 67.0638 99.4469 67.3577 99.7021 67.5947C99.9574 67.8317 100.331 68.0003 100.823 68.1006V65.3457C100.386 65.3685 100.026 65.5098 99.7432 65.7695C99.4606 66.0247 99.3193 66.3392 99.3193 66.7129ZM109.354 74V65.7832H109.238L106.764 67.5332V65.9678L109.361 64.1357H110.886V74H109.354ZM114.174 74L118.521 65.6055V65.4961H113.354V64.1357H120.073V65.5234L115.78 74H114.174ZM122.069 73.8223C121.878 74.0182 121.639 74.1162 121.352 74.1162C121.064 74.1162 120.825 74.0182 120.634 73.8223C120.442 73.6263 120.347 73.3848 120.347 73.0977C120.347 72.8105 120.442 72.569 120.634 72.373C120.825 72.1771 121.064 72.0791 121.352 72.0791C121.639 72.0791 121.878 72.1771 122.069 72.373C122.261 72.569 122.356 72.8105 122.356 73.0977C122.356 73.3848 122.261 73.6263 122.069 73.8223ZM126.369 69.5703V68.3057H127.565C128.094 68.3057 128.525 68.1598 128.857 67.8682C129.19 67.5765 129.356 67.1982 129.356 66.7334C129.356 66.2731 129.195 65.9062 128.871 65.6328C128.548 65.3548 128.117 65.2158 127.579 65.2158C127.041 65.2158 126.606 65.3548 126.273 65.6328C125.945 65.9108 125.761 66.2936 125.72 66.7812H124.264C124.314 65.888 124.64 65.1839 125.241 64.6689C125.843 64.154 126.638 63.8965 127.627 63.8965C128.543 63.8965 129.311 64.1471 129.931 64.6484C130.555 65.1452 130.867 65.765 130.867 66.5078C130.867 67.0866 130.708 67.5811 130.389 67.9912C130.074 68.4014 129.646 68.668 129.104 68.791V68.9072C129.773 68.9847 130.302 69.2399 130.689 69.6729C131.077 70.1012 131.271 70.6458 131.271 71.3066C131.271 71.8581 131.113 72.3571 130.799 72.8037C130.484 73.2503 130.049 73.6012 129.493 73.8564C128.942 74.1117 128.329 74.2393 127.654 74.2393C126.62 74.2393 125.774 73.9727 125.118 73.4395C124.466 72.9062 124.118 72.1999 124.072 71.3203H125.542C125.592 71.7988 125.806 72.1794 126.185 72.4619C126.567 72.7445 127.057 72.8857 127.654 72.8857C128.256 72.8857 128.748 72.7308 129.131 72.4209C129.514 72.111 129.705 71.7122 129.705 71.2246C129.705 70.7142 129.518 70.3109 129.145 70.0146C128.771 69.7184 128.26 69.5703 127.613 69.5703H126.369ZM139.433 73.4395C138.744 73.9727 137.851 74.2393 136.753 74.2393C135.655 74.2393 134.761 73.9727 134.073 73.4395C133.39 72.9062 133.048 72.2135 133.048 71.3613C133.048 70.7324 133.237 70.1878 133.615 69.7275C133.998 69.2673 134.506 68.9733 135.14 68.8457V68.7295C134.625 68.5973 134.212 68.3353 133.902 67.9434C133.597 67.5469 133.444 67.0843 133.444 66.5557C133.444 65.7764 133.754 65.1383 134.374 64.6416C134.994 64.1449 135.787 63.8965 136.753 63.8965C137.719 63.8965 138.512 64.1449 139.132 64.6416C139.752 65.1383 140.062 65.7764 140.062 66.5557C140.062 67.0889 139.909 67.5514 139.604 67.9434C139.298 68.3353 138.886 68.5973 138.366 68.7295V68.8457C139 68.9642 139.508 69.2536 139.891 69.7139C140.273 70.1696 140.465 70.7165 140.465 71.3545C140.465 72.2067 140.121 72.9017 139.433 73.4395ZM135.208 72.4893C135.604 72.8083 136.119 72.9678 136.753 72.9678C137.386 72.9678 137.901 72.8083 138.298 72.4893C138.694 72.1657 138.893 71.7464 138.893 71.2314C138.893 70.7165 138.694 70.2972 138.298 69.9736C137.901 69.6501 137.386 69.4883 136.753 69.4883C136.119 69.4883 135.604 69.6501 135.208 69.9736C134.812 70.2972 134.613 70.7165 134.613 71.2314C134.613 71.7464 134.812 72.1657 135.208 72.4893ZM135.447 67.8135C135.78 68.096 136.215 68.2373 136.753 68.2373C137.291 68.2373 137.726 68.096 138.059 67.8135C138.391 67.5309 138.558 67.1618 138.558 66.7061C138.558 66.2458 138.391 65.8721 138.059 65.585C137.726 65.2979 137.291 65.1543 136.753 65.1543C136.215 65.1543 135.78 65.2979 135.447 65.585C135.119 65.8721 134.955 66.2458 134.955 66.7061C134.955 67.1618 135.119 67.5309 135.447 67.8135Z" fill="white"/>
</svg>
